<?xml version="1.0" encoding="UTF-8" standalone="no"?>
<!-- Created with Inkscape (http://www.inkscape.org/) -->

<svg
   xmlns:dc="http://purl.org/dc/elements/1.1/"
   xmlns:cc="http://creativecommons.org/ns#"
   xmlns:rdf="http://www.w3.org/1999/02/22-rdf-syntax-ns#"
   xmlns:svg="http://www.w3.org/2000/svg"
   xmlns="http://www.w3.org/2000/svg"
   xmlns:sodipodi="http://sodipodi.sourceforge.net/DTD/sodipodi-0.dtd"
   xmlns:inkscape="http://www.inkscape.org/namespaces/inkscape"
   version="1.1"
   id="svg1485"
   width="500"
   height="508"
   viewBox="0 0 500 508"
   sodipodi:docname="advance_feature_img.svg"
   inkscape:version="0.92.3 (2405546, 2018-03-11)">
  <metadata
     id="metadata1491">
    <rdf:RDF>
      <cc:Work
         rdf:about="">
        <dc:format>image/svg+xml</dc:format>
        <dc:type
           rdf:resource="http://purl.org/dc/dcmitype/StillImage" />
        <dc:title></dc:title>
      </cc:Work>
    </rdf:RDF>
  </metadata>
  <defs
     id="defs1489" />
  <sodipodi:namedview
     pagecolor="#ffffff"
     bordercolor="#666666"
     borderopacity="1"
     objecttolerance="10"
     gridtolerance="10"
     guidetolerance="10"
     inkscape:pageopacity="0"
     inkscape:pageshadow="2"
     inkscape:window-width="1920"
     inkscape:window-height="1055"
     id="namedview1487"
     showgrid="false"
     inkscape:zoom="1.3139937"
     inkscape:cx="275.63723"
     inkscape:cy="254"
     inkscape:window-x="0"
     inkscape:window-y="0"
     inkscape:window-maximized="1"
     inkscape:current-layer="svg1485" />
  <g
     id="g2430"
     transform="matrix(0.12143782,0,0,0.12143782,209.05844,211.83596)">
    <rect
       style="opacity:1;fill:#000000;fill-opacity:1;stroke:none;stroke-width:8.78139591;stroke-linecap:round;stroke-linejoin:round;stroke-miterlimit:4;stroke-dasharray:none;stroke-opacity:1"
       id="rect2304"
       width="4117.3335"
       height="4117.3335"
       x="-1721.5266"
       y="-1678.5212"
       ry="2058.6667" />
    <path
       style="opacity:1;fill:#00a0f0;fill-opacity:1;stroke:#00000c;stroke-width:4.9000001;stroke-linecap:round;stroke-linejoin:round;stroke-miterlimit:4;stroke-dasharray:none;stroke-opacity:1"
       d="m 527.57548,-873.95588 c -195.8619,0.36343 -303.1366,124.66075 -342.6035,303.90624 -38.1933,173.4613 -296.4511,164.08 -453.8906,141.3399 -86.8168,93.3796 -158.9751,185.7074 -157.2188,233.1269 0,0 174.4636,-152.6558 331.480496,-126.4864 157.017,26.1695 61.0618,183.1871 -161.378896,191.9103 -222.4407,8.7231 -165.7389,318.3944 -87.2305,488.4961 78.5085,170.1017 -222.4408,152.6565 -65.4238,383.8203 157.017,231.1639 91.5919,174.4618 122.123,327.11724 30.5311,152.6553 122.1256,21.8093 178.8262,43.6172 56.700496,21.8079 52.338696,113.4002 39.253896,183.1855 -13.0847,69.7854 -30.5303,187.5483 87.2324,231.1641 117.762804,43.6158 270.416404,274.7798 231.162204,366.373 -39.2542,91.5932 -135.209,61.0625 -135.209,61.0625 0,0 300.9505,183.1871 680.4082,-78.5078 0,0 194.0908,-198.4535 261.69532,-274.7812 67.6045,-76.3277 209.3546,-287.8648 257.332,-597.5372 47.9774,-309.67234 69.7851,-462.32754 19.627,-756.73434 0,0 -10.9028,-224.621102 -37.0723,-290.045002 -18.8031,-47.0078 -18.4586,-202.814298 -16.7793,-287.035098 -12.6327,8.3892 -23.9052,7.8448 -33.2363,-4.1523 -68.0875,-87.5411 -104.9776,-285.7673 -115.0215,-346.76182 l -6.2754,-12.38476 c -71.617,124.66838 -313.56052,-115.03321 -313.56052,-115.03321 -110.323,-45.46644 -204.6041,-65.80793 -284.2403,-65.66015 z"
       id="path2306"
       inkscape:connector-curvature="0" />
    <path
       style="opacity:1;fill:#0028d0;fill-opacity:1;stroke:none;stroke-width:1.20000005;stroke-linecap:round;stroke-linejoin:round;stroke-miterlimit:4;stroke-dasharray:none;stroke-opacity:1"
       d="m 1201.5691,-830.27053 67.0792,47.4181 c 0,0 -94.8362,-39.32233 -99.4623,-50.88772 -4.6262,-11.56539 20.8177,32.3831 30.07,35.85271 9.2523,3.46962 -124.9062,-34.69617 -126.0628,-39.32233 -1.1565,-4.62615 75.1751,60.14004 127.2193,60.14004 0,0 3.4697,37.00925 -129.5323,-2.31308 0,0 50.8877,35.85271 64.7661,30.07002 13.8785,-5.7827 3.4697,28.91347 -83.2708,-17.34809 0,0 37.0093,69.39235 104.0886,48.57464 0,0 -3.4697,187.3593 -503.09462,-179.26356 0,0 -183.8897,-157.2893 -343.4921,53.2008 0,0 42.792,-144.56739 226.6817,-152.66316 0,0 -220.899,-28.91344 -322.6744,107.55813 0,0 108.7147,-134.15857 227.8382,-136.47157 0,0 -202.3944,-1.1566 -300.7002,179.26352 0,0 62.4531,-153.81972 182.7332,-194.29862 0,0 -83.2708,0 -87.897,16.1916 -4.6261,16.1915 40.4789,-113.3408 259.0648,-41.6354 0,0 -84.4274,-69.3924 -271.7867,8.0958 0,0 117.967,-69.3924 173.4809,-58.9835 55.5138,10.4088 -27.757,-39.3224 -43.9485,-35.8527 -16.1916,3.4696 47.4181,-23.1308 123.7497,15.035 76.3315,38.1658 -28.9135,-137.6282 -281.039,-86.7405 0,0 115.6539,-33.5396 136.4716,-30.07 20.8177,3.4696 -133.002,-24.2873 -238.247104,41.6354 0,0 217.429404,-74.0185 241.716704,-70.5489 24.2873,3.4696 -28.9135,-20.8177 -57.827,-5.7827 -28.9134,15.035 13.8785,-20.8177 34.6962,-18.5046 20.8177,2.3131 -121.4366,-76.3316 -148.037,-69.3923 -26.6004,6.9392 274.0998,-24.2874 422.1368,143.4108 0,0 -165.3851,-160.7589 -261.3779,-149.1935 0,0 198.9248,12.7219 344.6487,100.6189 0,0 165.3851,68.2358 183.8897,86.7404 18.5046,18.5046 104.0885,94.8362 104.0885,94.8362 l 78.64472,64.7662 69.3923,114.49738 z"
       id="path2308"
       inkscape:connector-curvature="0" />
    <path
       style="opacity:1;fill:#34d0fc;fill-opacity:1;stroke:none;stroke-width:1.20000005;stroke-linecap:round;stroke-linejoin:round;stroke-miterlimit:4;stroke-dasharray:none;stroke-opacity:1"
       d="m 1188.847,-396.56924 c 16.1916,80.9578 -161.916,74.0197 -161.916,74.0197 127.2193,159.6024 57.8281,164.2284 57.8281,164.2284 208.1771,115.653998 -23.1308,203.550798 -23.1308,203.550798 -124.90622,27.757 -238.24812,127.218702 -238.24812,127.218702 737.87192,67.0792 74.0195,247.5001 74.0195,247.5001 32.3831,122.5931 328.45712,94.8359 328.45712,94.8359 -50.8877,78.6446 -37.0098,303.0137 -37.0098,303.0137 0,0 -455.67712,-261.3772 -208.17772,20.8184 247.49942,282.19554 -60.1387,266.00394 -60.1387,266.00394 279.88242,411.7279 -101.7754,261.3769 -101.7754,261.3769 0,0 -328.4569,194.2985 -219.7422,180.42 108.7147,-13.8784 252.1252,34.6957 196.6114,71.705 -55.5139,37.0092 -247.4997,134.1594 -92.5235,106.4024 154.9763,-27.7569 180.4199,43.9472 180.4199,43.9472 l 10.6934,5.545 c 58.4618,-60.6393 127.45312,-132.9606 162.58792,-172.6289 67.6045,-76.3277 209.3546,-287.8648 257.332,-597.5372 47.9774,-309.67234 69.7851,-462.32754 19.627,-756.73434 0,0 -10.9028,-224.621102 -37.0723,-290.045002 -18.0641,-45.1601 -18.462,-191.044298 -16.9766,-277.122998 z"
       id="path2310"
       inkscape:connector-curvature="0" />
    <path
       style="opacity:1;fill:#0054dc;fill-opacity:1;stroke:none;stroke-width:1.20000005;stroke-linecap:round;stroke-linejoin:round;stroke-miterlimit:4;stroke-dasharray:none;stroke-opacity:1"
       d="m 87.821876,1349.8058 157.289304,-8.0958 346.9618,-8.0958 251.8287,-54.4372 -56.3736,113.4207 -134.1586,120.2801 -150.35,27.7569 -139.9413,25.4439 -225.5251,-82.1143 -49.731204,-127.2193 z"
       id="path2312"
       inkscape:connector-curvature="0" />
    <path
       style="opacity:1;fill:#0080e8;fill-opacity:1;stroke:none;stroke-width:1.20000005;stroke-linecap:round;stroke-linejoin:round;stroke-miterlimit:4;stroke-dasharray:none;stroke-opacity:1"
       d="m 671.34638,1588.3038 c 0,0 -427.6027,319.0015 -715.110704,-262.4823 0,0 248.966604,-182.399 471.407304,-138.238 0,0 91.5932,-31.0763 147.2034,-16.3559 0,0 -124.3051,63.7881 -111.2204,106.3135 0,0 -93.2288,-111.2203 -430.161004,58.8814 0,0 278.050904,350.0169 637.881404,251.8813 z"
       id="path2314"
       inkscape:connector-curvature="0"
       sodipodi:nodetypes="ccccccc" />
    <path
       style="opacity:1;fill:#008cec;fill-opacity:1;stroke:none;stroke-width:1.20000005;stroke-linecap:round;stroke-linejoin:round;stroke-miterlimit:4;stroke-dasharray:none;stroke-opacity:1"
       d="m 530.77638,1515.1909 c 0,0 145.7239,-90.2101 149.1935,-122.5932 0,0 -272.9432,134.1586 -378.1883,-5.7827 l 542.1201,-107.638 c 0,0 -122.2964,116.8903 -122.2964,106.4815 0,-10.4089 27.757,24.2873 65.9228,6.9391 0,0 -198.9248,186.2028 -256.7517,122.5933 z"
       id="path2316"
       inkscape:connector-curvature="0" />
    <path
       style="opacity:1;fill:#001cd0;fill-opacity:1;stroke:none;stroke-width:1.20000005;stroke-linecap:round;stroke-linejoin:round;stroke-miterlimit:4;stroke-dasharray:none;stroke-opacity:1"
       d="m 771.11758,1422.6555 c 0,0 -115.435,154.9885 -270.4112,152.6754 -154.9763,-2.3131 -179.2636,4.6262 -179.2636,4.6262 0,0 111.0278,-55.5139 114.4974,-64.7662 3.4696,-9.2523 157.2893,63.6096 383.971,-175.794 z"
       id="path2318"
       inkscape:connector-curvature="0" />
    <path
       style="opacity:1;fill:#ccf0fc;fill-opacity:1;stroke:none;stroke-width:1.20000005;stroke-linecap:round;stroke-linejoin:round;stroke-miterlimit:4;stroke-dasharray:none;stroke-opacity:1"
       d="m -74.485024,424.57936 -41.707096,8.1776 80.370296,-155.2376 c 0,0 119.0593,54.1686 140.434404,88.1791 0,0 -42.439204,53.6814 -179.097604,58.8809 z"
       id="path2320"
       inkscape:connector-curvature="0"
       sodipodi:nodetypes="ccccc" />
    <path
       style="opacity:1;fill:#84e0fc;fill-opacity:1;stroke:none;stroke-width:1.20000005;stroke-linecap:round;stroke-linejoin:round;stroke-miterlimit:4;stroke-dasharray:none;stroke-opacity:1"
       d="m -148.11212,265.55026 -80.9577,14.4567 -28.9135,89.0535 46.8399,60.7183 c 0,0 80.0314,8.2696 94.9513,2.9782 14.9199,-5.2912 69.277196,-15.7001 95.877596,-59.6486 26.6004001,-43.9485 1.7348,-86.7403 1.7348,-86.7403 0,0 -111.027696,-32.3831 -129.532396,-20.8178 z"
       id="path2322"
       inkscape:connector-curvature="0" />
    <path
       style="opacity:1;fill:#000058;fill-opacity:1;stroke:none;stroke-width:1.24255311;stroke-linecap:round;stroke-linejoin:round;stroke-miterlimit:4;stroke-dasharray:none;stroke-opacity:1"
       d="m -138.27882,264.49586 c -10.6004,0.066 -20.1604,0.4563 -28.211,0.9336 a 86.937767,86.937767 0 0 0 -26.8261,62.6836 86.937767,86.937767 0 0 0 86.9375,86.9395 86.937767,86.937767 0 0 0 86.937496,-86.9395 86.937767,86.937767 0 0 0 -16.3809,-50.5937 c -32.8954,-10.7227 -71.784696,-13.2143 -102.456996,-13.0235 z"
       id="path2324"
       inkscape:connector-curvature="0" />
    <path
       style="opacity:1;fill:#007ce8;fill-opacity:1;stroke:none;stroke-width:1.20000005;stroke-linecap:round;stroke-linejoin:round;stroke-miterlimit:4;stroke-dasharray:none;stroke-opacity:1"
       d="m 720.96028,361.60866 c -2.0572,0.5878 108.2912,40.5399 214.0625,25.1972 158.98812,-23.062 163.86132,-76.4648 163.86132,-76.4648 -6.2753,-60.9275 -269.85262,-164.0416 -377.92382,51.2676 z"
       id="path2326"
       inkscape:connector-curvature="0"
       sodipodi:nodetypes="cscc" />
    <path
       style="opacity:1;fill:#ccf0fc;fill-opacity:1;stroke:none;stroke-width:1.20000005;stroke-linecap:round;stroke-linejoin:round;stroke-miterlimit:4;stroke-dasharray:none;stroke-opacity:1"
       d="m 980.47348,230.21606 130.30232,77.4182 c 0,0 -106.8588,79.0537 -115.03682,69.2401 -8.1779,-9.8136 -9.2683,-98.1357 -9.2683,-98.1357 z"
       id="path2328"
       inkscape:connector-curvature="0" />
    <path
       style="opacity:1;fill:#84e0fc;fill-opacity:1;stroke:none;stroke-width:1.20000005;stroke-linecap:round;stroke-linejoin:round;stroke-miterlimit:4;stroke-dasharray:none;stroke-opacity:1"
       d="m 940.67408,227.49016 51.2486,11.9944 c 0,0 64.33332,77.9633 8.17792,133.5734 0,0 -95.95292,25.079 -132.48212,15.2655 -36.5292,-9.8135 73.0556,-160.8333 73.0556,-160.8333 z"
       id="path2330"
       inkscape:connector-curvature="0" />
    <path
       style="opacity:1;fill:#000058;fill-opacity:1;stroke:none;stroke-width:1.24255311;stroke-linecap:round;stroke-linejoin:round;stroke-miterlimit:4;stroke-dasharray:none;stroke-opacity:1"
       d="m 933.66928,225.80576 c -42.5875,0.2024 -86.6151,16.3785 -109.2989,26.1075 a 86.937767,86.937767 0 0 0 -16.7031,51.086 86.937767,86.937767 0 0 0 86.9375,86.9394 86.937767,86.937767 0 0 0 86.9375,-86.9394 86.937767,86.937767 0 0 0 -47.1094,-77.1895 c -0.2547,10e-5 -0.5088,-0.01 -0.7636,0 z"
       id="path2332"
       inkscape:connector-curvature="0" />
    <path
       style="opacity:1;fill:#000000;fill-opacity:1;stroke:none;stroke-width:1.20000005;stroke-linecap:round;stroke-linejoin:round;stroke-miterlimit:4;stroke-dasharray:none;stroke-opacity:1"
       d="m 934.94468,216.99136 c -33.808,-0.3554 -70.1983,7.2364 -107.127,27.9454 0,0 -71.9648,32.1661 -106.8574,116.6719 0,0 57.2455,-136.2994 208.8105,-127.5762 107.98602,6.215 135.43892,56.4226 169.11332,76.3086 -0.745,-0.01 -1.4977,-0.01 -2.2832,0.02 0,0 -97.15452,77.1916 -161.57812,76.4453 17.6017,0.2874 99.32172,-2.2825 182.86132,-69.1621 8.7324,1.534 18.5629,0.8555 30.5098,-2.9219 0,0 -20.7172,-3.8171 -35.4375,-21.8086 -10.8103,-13.2125 -84.5426,-74.939 -178.01172,-75.9218 z m 0.078,169.8144 c -0.6386,-0.01 -1.1293,-0.024 -1.5957,-0.039 0.5303,0.017 1.0608,0.033 1.5957,0.039 z m -1.5957,-0.039 c -0.6759,-0.022 -1.3533,-0.038 -2.0215,-0.078 0,0 0.8312,0.04 2.0215,0.078 z m -212.4668,-25.1583 -4.9082,8.1778 c 23.5263,9.8318 79.5005,14.6731 116.4512,16.8847 -45.9418,-6.5504 -111.543,-25.0625 -111.543,-25.0625 z m 111.543,25.0625 c 14.5964,2.0812 27.228,2.9669 35.1152,1.6524 0,0 -14.6944,-0.4301 -35.1152,-1.6524 z"
       id="path2334"
       inkscape:connector-curvature="0" />
    <path
       style="opacity:1;fill:#a4e8fc;fill-opacity:1;stroke:none;stroke-width:1.20000005;stroke-linecap:round;stroke-linejoin:round;stroke-miterlimit:4;stroke-dasharray:none;stroke-opacity:1"
       d="m 916.88378,279.09676 c 6.1061,13.2417 5.7795,33.2008 -0.1984,53.0713 l 33.257,20.7175 c 0,0 35.4653,-49.7614 -0.5452,-101.952 z"
       id="path2336"
       inkscape:connector-curvature="0"
       sodipodi:nodetypes="ccccc" />
    <ellipse
       style="opacity:1;fill:#000000;fill-opacity:1;stroke:none;stroke-width:1.88705122;stroke-linecap:round;stroke-linejoin:round;stroke-miterlimit:4;stroke-dasharray:none;stroke-opacity:1"
       id="ellipse2338"
       cx="885.99121"
       cy="304.67993"
       rx="24.302582"
       ry="37.394768" />
    <path
       style="opacity:1;fill:#000000;fill-opacity:1;stroke:none;stroke-width:1.20000005;stroke-linecap:round;stroke-linejoin:round;stroke-miterlimit:4;stroke-dasharray:none;stroke-opacity:1"
       d="m 687.70228,381.23596 c 0,0 -60.5169,5.452 -26.1695,-41.9802 34.3475,-47.4322 104.678,-150.4746 267.6921,-149.3842 163.01412,1.0904 234.98032,73.0564 234.98032,73.0564 0,0 -88.8673,-101.952 -267.14702,-78.5084 -178.2796,23.4435 -241.5226,135.209 -241.5226,135.209 0,0 -56.1553,89.4125 32.1667,61.6074 z"
       id="path2340"
       inkscape:connector-curvature="0" />
    <path
       style="opacity:1;fill:#000000;fill-opacity:1;stroke:none;stroke-width:1.20000005;stroke-linecap:round;stroke-linejoin:round;stroke-miterlimit:4;stroke-dasharray:none;stroke-opacity:1"
       d="m 559.11158,145.27026 c 0,0 -19.6612,-117.967102 -13.3002,-130.689002 0,0 27.1787,34.6962 30.07,42.2137 0,0 20.2395,-53.2008001 17.9264,-85.5839 0,0 13.8784,10.4088 12.1436,15.6132 0,0 311.1091,-170.589498 519.28612,-119.701798 0,0 142.2543,67.079298 158.4459,183.889798 0,0 -93.6797,-91.3666 -321.51792,-13.8785 -227.8382,77.488102 -245.1863,56.6704 -245.1863,56.6704 0,0 -58.9835,-5.7827 -101.7755,47.418102 l -17.348,-19.6612 -18.5047,5.7827 -11.5654,-12.7219 z"
       id="path2342"
       inkscape:connector-curvature="0" />
    <path
       style="opacity:1;fill:#000000;fill-opacity:1;stroke:none;stroke-width:1.20000005;stroke-linecap:round;stroke-linejoin:round;stroke-miterlimit:4;stroke-dasharray:none;stroke-opacity:1"
       d="m 531.93288,136.59626 c -4.6261,-3.4698 -23.1307,-21.9744 -23.1307,-34.6963 0,-12.721902 -4.0479,26.0221 23.1307,34.6963 z"
       id="path2344"
       inkscape:connector-curvature="0" />
    <path
       style="opacity:1;fill:#007ce8;fill-opacity:1;stroke:none;stroke-width:1.20000005;stroke-linecap:round;stroke-linejoin:round;stroke-miterlimit:4;stroke-dasharray:none;stroke-opacity:1"
       d="m -329.18822,348.67116 c 0,0 82.192,-65.1945 129.6101,-70.9772 0,0 -118.3149,162.6674 83.386,155.0631 0,0 -220.0131,19.2744 -212.9961,-84.0859 z"
       id="path2346"
       inkscape:connector-curvature="0" />
    <path
       style="opacity:1;fill:#000000;fill-opacity:1;stroke:none;stroke-width:1.20000005;stroke-linecap:round;stroke-linejoin:round;stroke-miterlimit:4;stroke-dasharray:none;stroke-opacity:1"
       d="m -130.01822,259.55976 c -136.5089,-0.5172 -237.2364,93.8711 -237.2364,93.8711 l 26.9864,6.543 c 0.016,-0.2287 0.085,-0.4777 0.1758,-0.7363 -0.1132,0.4523 -0.1758,0.7363 -0.1758,0.7363 30.2585,103.8602 224.0761,72.7832 224.0761,72.7832 -162.3184,12.3671 -208.4209,-74.5071 -212.9961,-84.0859 25.3354,-18.6994 85.42,-50.0332 85.42,-50.0332 181.550896,-90.7754 348.3808,67.0605 348.3808,67.0605 -81.805204,-79.5563 -163.126204,-105.8677 -234.6308,-106.1387 z m 234.6308,106.1387 c -31.894804,40.8905 -179.097604,58.8809 -179.097604,58.8809 194.635604,3.2711 179.097604,-58.881 179.097604,-58.8809 z"
       id="path2348"
       inkscape:connector-curvature="0" />
    <path
       style="opacity:1;fill:#a4e8fc;fill-opacity:1;stroke:none;stroke-width:1.20000005;stroke-linecap:round;stroke-linejoin:round;stroke-miterlimit:4;stroke-dasharray:none;stroke-opacity:1"
       d="m -78.577124,310.17316 c 6.1061,13.2417 5.7795,33.2007 -0.1984,53.0713 l 33.257,20.7175 c 0,0 35.4653,-49.7614 -0.5452,-101.952 z"
       id="path2350"
       inkscape:connector-curvature="0"
       sodipodi:nodetypes="ccccc" />
    <ellipse
       style="opacity:1;fill:#000000;fill-opacity:1;stroke:none;stroke-width:1.88705122;stroke-linecap:round;stroke-linejoin:round;stroke-miterlimit:4;stroke-dasharray:none;stroke-opacity:1"
       id="ellipse2352"
       cx="-109.46962"
       cy="335.75635"
       rx="24.302582"
       ry="37.394768" />
    <path
       style="opacity:1;fill:#000000;fill-opacity:1;stroke:none;stroke-width:1.20000005;stroke-linecap:round;stroke-linejoin:round;stroke-miterlimit:4;stroke-dasharray:none;stroke-opacity:1"
       d="m 118.47018,334.94256 c 0,0 -196.000704,-198.6459 -464.3504,-28.3352 0,0 217.3302,-213.411402 464.3504,28.3352 z"
       id="path2354"
       inkscape:connector-curvature="0" />
    <path
       style="opacity:1;fill:#000000;fill-opacity:1;stroke:none;stroke-width:1.20000005;stroke-linecap:round;stroke-linejoin:round;stroke-miterlimit:4;stroke-dasharray:none;stroke-opacity:1"
       d="m 202.74888,197.23156 c 0,0 8.178,-86.6864 26.1695,-113.673702 0,0 -38.4365,41.707602 -36.8009,53.156802 0,0 -11.4491,-58.881402 -17.9915,-62.970402 0,0 3.2712,35.165402 0.8178,44.161102 -2.4534,8.9957 -14.7203,-49.067802 -13.0847,-53.974602 1.6356,-4.9068 -12.267,34.3475 -8.9958,37.618602 3.2712,3.2712 -22.0805,-39.254202 -18.8093,-52.338902 0,0 -9.8136,23.7162 -3.2712,40.0721 0,0 -25.3517,-47.4322 -31.894104,-47.4322 l -69.5127,-48.2500001 c 0,0 13.0848,33.5296001 4.089,27.8051001 0,0 -62.9703,-44.9789 -71.1483,-44.9789 0,0 17.1737,20.4449999 14.7203,23.71609992 C -25.416424,3.4138579 -142.36132,-102.08184 -347.62822,6.6850579 l -66.2416,52.3390001 c 0,0 11.4492,32.7119 34.3475,45.796602 22.8983,13.0848 194.6356,-59.699102 358.194896,17.1737 163.559304,76.8729 176.644104,58.0636 224.076304,75.2372 z"
       id="path2356"
       inkscape:connector-curvature="0" />
    <path
       style="opacity:1;fill:#001cd0;fill-opacity:1;stroke:none;stroke-width:1.20000005;stroke-linecap:round;stroke-linejoin:round;stroke-miterlimit:4;stroke-dasharray:none;stroke-opacity:1"
       d="m 609.65358,1222.4798 c -55.8382,-0.064 -116.8229,64.096 -130.1523,78.8984 l -3.1406,0.1914 -4.125,0.25 v 0 l -61.7636,-37.3633 c -66.2415,-40.0721 -179.0977,15.5373 -227.3477,32.711 -48.25,17.1738 -117.763704,29.4414 -117.763704,29.4414 8.9958,45.7966 164.377004,42.5254 164.377004,42.5254 62.9704,26.9873 325.4844,26.1699 325.4844,26.1699 94.8644,-47.4322 288.6816,-116.127 288.6816,-116.127 0,0 -163.5601,-50.7031 -228.166,-56.4277 -2.019,-0.1789 -4.0465,-0.2672 -6.0821,-0.2695 z"
       id="path2358"
       inkscape:connector-curvature="0" />
    <path
       style="opacity:1;fill:#000000;fill-opacity:1;stroke:none;stroke-width:1.20000005;stroke-linecap:round;stroke-linejoin:round;stroke-miterlimit:4;stroke-dasharray:none;stroke-opacity:1"
       d="m 361.54228,1260.5755 c -46.2669,-0.1668 -89.2528,13.9281 -109.4922,22.1502 -28.5948,11.6167 -125.2119,38.6384 -168.445304,50.5411 -46.4717,-17.0173 -84.48829991,-33.6446 -84.48829991,-33.6446 -23.14910009,-11.5746 -37.20730009,14.9465 -42.88080009,26.1992 8.4175,-6.4597 32.25,-13.1152 32.25,-13.1152 35.983,-2.4534 53.9746,51.5215 53.9746,51.5215 53.1567,151.2923 228.165904,212.6275 253.517604,219.1699 25.3517,6.5423 105.4961,-40.8906 105.4961,-40.8906 -59.6992,15.5382 -195.4548,-53.1572 -246.1582,-105.4961 -50.7034,-52.339 74.4199,-67.8769 74.4199,-67.8769 -25.5205,2.0692 -70.5231,-9.9789 -114.0449,-24.5938 29.5089,-5.6795 78.4125,-19.1986 146.7675,-51.4043 120.2801,-56.6705 209.7754,8.6836 209.7754,8.6836 -31.7677,-31.1768 -72.356,-41.106 -110.6914,-41.244 z m -405.306604,65.246 c -1.8039,1.3844 -2.9141,2.7597 -2.9141,4.0585 0,1.8776 0.9713,-0.2051 2.9141,-4.0585 z"
       id="path2360"
       inkscape:connector-curvature="0" />
    <path
       style="opacity:1;fill:#000000;fill-opacity:1;stroke:#000000;stroke-width:1.20000005;stroke-linecap:round;stroke-linejoin:round;stroke-miterlimit:4;stroke-dasharray:none;stroke-opacity:1"
       d="m 959.21028,1212.1165 c 0,0 -35.5634,36.2851 -60.2774,57.6133 13.1291,-17.5766 23.4766,-35.168 23.4766,-35.168 0,0 -80.1436,63.7894 -161.1055,89.9589 0,0 44.1608,-10.632 56.4278,-12.2676 12.2669,-1.6356 -37.6176,97.3176 -46.6133,110.4023 0,0 72.7833,-107.9497 95.6816,-120.2168 4.5728,-2.4496 9.5379,-6.643 14.5547,-11.7617 18.8766,-4.7297 46.7296,-4.0562 64.7715,31.0254 0,0 7.3605,-33.8947 -8.1777,-60.5176 0,0 22.8973,-24.5344 21.2617,-49.0682 z"
       id="path2362"
       inkscape:connector-curvature="0" />
    <path
       style="opacity:1;fill:#000000;fill-opacity:1;stroke:none;stroke-width:1.20000005;stroke-linecap:round;stroke-linejoin:round;stroke-miterlimit:4;stroke-dasharray:none;stroke-opacity:1"
       d="m 315.66008,1386.815 c 0,0 98.3058,12.722 120.2801,1.1565 21.9742,-11.5653 101.7754,-1.1565 101.7754,-1.1565 0,0 97.1493,-2.313 190.829,-57.8269 0,0 -197.7682,114.4973 -412.8845,57.8269 z"
       id="path2364"
       inkscape:connector-curvature="0" />
    <path
       style="opacity:1;fill:#000000;fill-opacity:1;stroke:none;stroke-width:1.20000005;stroke-linecap:round;stroke-linejoin:round;stroke-miterlimit:4;stroke-dasharray:none;stroke-opacity:1"
       d="m 162.67688,225.85456 c 0,0 201.1779,27.8051 145.5678,354.9238 0,0 -57.2458,196.2712 -29.4407,246.9746 0,0 -55.667,17.8017 -116.9636,-1.8594 -61.2966,-19.6612 -136.471604,62.4531 -99.462304,138.7847 0,0 -141.0978,-45.1051 -68.2358999,-233.6209 C 67.004176,542.54146 234.70238,459.27066 196.53658,323.95556 c -38.1658,-135.3151 -33.8597,-98.101 -33.8597,-98.101 z"
       id="path2366"
       inkscape:connector-curvature="0" />
    <path
       style="opacity:1;fill:#000000;fill-opacity:1;stroke:none;stroke-width:1.20000005;stroke-linecap:round;stroke-linejoin:round;stroke-miterlimit:4;stroke-dasharray:none;stroke-opacity:1"
       d="m 311.03398,978.55666 c 0,0 -82.6926,-31.8048 -119.7018,-8.674 -37.0093,23.1308 119.7018,8.674 119.7018,8.674 z"
       id="path2368"
       inkscape:connector-curvature="0" />
    <path
       style="opacity:1;fill:#000000;fill-opacity:1;stroke:none;stroke-width:1.20000005;stroke-linecap:round;stroke-linejoin:round;stroke-miterlimit:4;stroke-dasharray:none;stroke-opacity:1"
       d="m 533.08948,969.30436 c 0,0 94.2579,-43.9485 146.3022,0 0,0 -72.862,-15.6133 -104.0885,-4.0479 -31.2266,11.5654 -42.2137,4.0479 -42.2137,4.0479 z"
       id="path2370"
       inkscape:connector-curvature="0" />
    <path
       style="opacity:1;fill:#000000;fill-opacity:1;stroke:none;stroke-width:1.20000005;stroke-linecap:round;stroke-linejoin:round;stroke-miterlimit:4;stroke-dasharray:none;stroke-opacity:1"
       d="m 266.50718,1040.4316 c 0,0 -97.1493,-19.0829 -104.0885,-26.0222 0,0 -43.3702,8.6741 -59.5618,-2.8913 0,0 27.757,15.6133 49.7312,16.1915 0,0 79.2229,36.431 113.9191,12.722 z"
       id="path2372"
       inkscape:connector-curvature="0" />
    <path
       style="opacity:1;fill:#000000;fill-opacity:1;stroke:none;stroke-width:1.20000005;stroke-linecap:round;stroke-linejoin:round;stroke-miterlimit:4;stroke-dasharray:none;stroke-opacity:1"
       d="m 784.05848,739.15306 c 0,0 157.2893,240.5602 198.9247,259.0648 0,0 -145.7239,-90.2101 -198.9247,-259.0648 z"
       id="path2374"
       inkscape:connector-curvature="0" />
    <path
       style="opacity:1;fill:#000000;fill-opacity:1;stroke:none;stroke-width:1.20000005;stroke-linecap:round;stroke-linejoin:round;stroke-miterlimit:4;stroke-dasharray:none;stroke-opacity:1"
       d="m 721.60528,762.28386 c 0,0 138.7847,145.7238 4.6262,219.7424 0,0 159.6024,-46.2615 -4.6262,-219.7424 z"
       id="path2376"
       inkscape:connector-curvature="0" />
    <path
       style="opacity:1;fill:#34d0fc;fill-opacity:1;stroke:none;stroke-width:1.20000005;stroke-linecap:round;stroke-linejoin:round;stroke-miterlimit:4;stroke-dasharray:none;stroke-opacity:1"
       d="m 465.26158,359.97326 c 0,0 271.5085,173.3729 181.5509,426.8898 0,0 47.4322,65.4238 62.1525,1.6356 0,0 144.1177,104.0975 17.2665,193.5276 0,0 -82.6902,-92.1209 -257.6987,2.7435 0,0 39.2542,-62.1525 39.2542,-70.3305 0,-8.1779 -98.1356,27.8051 -99.7711,-9.8136 -1.6356,-37.6185 78.5084,-101.4067 78.5084,-101.4067 0,0 -153.7457,-49.0677 -94.8644,-121.0338 0,0 122.6695,68.6948 153.7458,39.2541 0,0 8.178,-88.322 45.7966,-96.5 0,0 -191.3644,-19.6271 -125.9407,-264.966 z"
       id="path2378"
       inkscape:connector-curvature="0" />
    <path
       style="opacity:1;fill:#000000;fill-opacity:1;stroke:none;stroke-width:1.20000005;stroke-linecap:round;stroke-linejoin:round;stroke-miterlimit:4;stroke-dasharray:none;stroke-opacity:1"
       d="m 644.11718,992.43516 c 0,0 -17.3481,18.50464 -40.4788,21.97424 -23.1308,3.4697 99.4623,-3.4696 109.8712,-24.28734 0,0 -67.0793,13.87844 -69.3924,2.3131 z"
       id="path2380"
       inkscape:connector-curvature="0" />
    <path
       style="opacity:1;fill:#000000;fill-opacity:1;stroke:none;stroke-width:1.20000005;stroke-linecap:round;stroke-linejoin:round;stroke-miterlimit:4;stroke-dasharray:none;stroke-opacity:1"
       d="m 334.16468,991.27866 c 0,0 62.4532,32.38304 82.1143,32.38304 0,0 -82.1143,6.9393 -119.1235,33.5397 0,0 62.4531,-39.3223 37.0092,-65.92274 z"
       id="path2382"
       inkscape:connector-curvature="0" />
    <path
       style="opacity:1;fill:#000060;fill-opacity:1;stroke:none;stroke-width:1.20000005;stroke-linecap:round;stroke-linejoin:round;stroke-miterlimit:4;stroke-dasharray:none;stroke-opacity:1"
       d="m -274.17482,-841.83592 c 0,0 77.4881,41.6354 412.8844,-244.02978 0,0 -134.1585039,82.1143 -136.4716039,76.3316 -2.31310001,-5.7827 24.2872999,-24.2873 26.6003999,-34.6962 0,0 -195.455096,143.41088 -194.298496,163.07205 0,0 -91.3666,56.67041 -108.7147,39.32233 z"
       id="path2384"
       inkscape:connector-curvature="0" />
    <path
       style="opacity:1;fill:#000060;fill-opacity:1;stroke:none;stroke-width:1.20000005;stroke-linecap:round;stroke-linejoin:round;stroke-miterlimit:4;stroke-dasharray:none;stroke-opacity:1"
       d="m -173.55592,-726.18201 c 0,0 108.714696,-179.26356 133.001996,-187.35934 0,0 -13.8785,0 -25.4439,8.09578 -11.5654,8.09577 20.8177,-47.41811 47.4181,-57.82696 26.6004001,-10.40885 -142.254296,46.26156 -164.228496,143.41085 0,0 50.8877,-69.39235 69.3923,-72.86196 0,0 -57.8269,57.82695 -54.3573,70.54888 0,0 61.2965,-57.82695 72.861896,-58.98349 0,0 -87.896896,120.28006 -78.644596,154.97624 z"
       id="path2386"
       inkscape:connector-curvature="0" />
    <path
       style="opacity:1;fill:#000060;fill-opacity:1;stroke:none;stroke-width:1.20000005;stroke-linecap:round;stroke-linejoin:round;stroke-miterlimit:4;stroke-dasharray:none;stroke-opacity:1"
       d="m 10.333776,-797.88744 c 0,0 141.097804,-183.88972 174.637404,-188.51587 0,0 -61.2966,23.13078 -63.6096,34.69617 -2.3131,11.56539 -3.4697,-16.19155 9.2523,-18.50462 0,0 -99.462404,72.86196 -99.462404,94.8362 0,0 55.5139,-49.73118 70.548904,-48.57464 0,0 -92.5231039,104.08852 -91.366604,126.06276 z"
       id="path2388"
       inkscape:connector-curvature="0" />
    <path
       style="opacity:1;fill:#00008c;fill-opacity:1;stroke:none;stroke-width:1.20000005;stroke-linecap:round;stroke-linejoin:round;stroke-miterlimit:4;stroke-dasharray:none;stroke-opacity:1"
       d="m -100.69402,-775.91319 c 20.817696,-16.19155 109.8712961,-151.50663 156.132796,-165.3851 0,0 -154.9762,97.14929 -173.480796,153.8197 -18.5047,56.67042 17.348,11.5654 17.348,11.5654 z"
       id="path2390"
       inkscape:connector-curvature="0" />
    <path
       style="opacity:1;fill:#0070e4;fill-opacity:1;stroke:none;stroke-width:1.20000005;stroke-linecap:round;stroke-linejoin:round;stroke-miterlimit:4;stroke-dasharray:none;stroke-opacity:1"
       d="m 1258.5244,-824.19636 c -3.2712,-0.8178 -295.22462,-32.71187 -354.10602,-129.21187 0,0 61.3348,21.26271 69.5127,16.35593 0,0 -89.9576,-40.88983 -85.8686,-52.33898 0,0 22.0805,12.26695 28.6229,9.81356 6.5423,-2.45339 -6.5424,-21.26268 -11.4492,-22.08048 -4.9068,-0.8178 42.5254,-10.6314 60.517,2.45336 0,0 -29.4407,-23.71616 -34.3475,-23.71616 -4.9068,0 13.9026,-9.8135 20.4449,-6.5423 6.5424,3.2712 -2.4534,-14.7204 -5.7245,-14.7204 -3.2712,0 12.2669,-13.9025 30.2584,-12.2669 17.9916,1.6356 -50.7034,-48.25 -56.4279,-46.6144 -5.7246,1.6356 9.8135,-12.267 14.7203,-8.178 4.9068,4.089 -105.4958,-99.7712 -134.9364,-104.678 -29.4407,-4.9067 68.6949,-2.4534 156.1991,92.4111 l -4.9068,-14.7204 c 0,0 28.6229,30.2585 36.8009,41.7076 8.1779,11.4492 69.51272,17.1738 84.23302,78.5085 14.7204,61.33478 58.8814,44.97885 58.8814,44.97885 0,0 58.0636,12.26695 21.2627,53.97458 0,0 49.8856,5.72457 31.0763,28.62288 -18.8093,22.89831 31.0763,-13.90254 75.2373,66.24153 z"
       id="path2392"
       inkscape:connector-curvature="0" />
    <path
       style="opacity:1;fill:#0070e4;fill-opacity:1;stroke:none;stroke-width:1.20000005;stroke-linecap:round;stroke-linejoin:round;stroke-miterlimit:4;stroke-dasharray:none;stroke-opacity:1"
       d="m 1351.7532,-595.21334 c 0,0 -37.6187,332.0254 -31.0763,366.373 6.5424,34.3474 -16.3559,-119.3983 -16.3559,-137.3898 0,-17.9916 -24.6088,46.1786 -24.6088,46.1786 0,0 14.7952,267.855298 50.7783,321.8297979 35.983,53.9746001 19.6271,210.9916021 19.6271,210.9916021 l 19.6271,389.2712 c 0,0 32.7119,-135.7543 34.3475,-186.4577 1.6356,-50.7033 49.0678,-287.8644 63.7881,-304.2203 14.7203,-16.355902 19.6271,-178.279702 19.6271,-178.279702 0,0 -8.1779,-358.194898 -58.8813,-435.067798 -50.7034,-76.8729 -76.8729,-93.2289 -76.8729,-93.2289 z"
       id="path2394"
       inkscape:connector-curvature="0" />
    <path
       style="opacity:1;fill:#0070e4;fill-opacity:1;stroke:none;stroke-width:1.20000005;stroke-linecap:round;stroke-linejoin:round;stroke-miterlimit:4;stroke-dasharray:none;stroke-opacity:1"
       d="m 1266.3353,-644.06774 c 0,0 -6.9393,95.9928 -37.0093,130.6889 0,0 43.9485,-28.9134 37.0093,-130.6889 z"
       id="path2396"
       inkscape:connector-curvature="0" />
    <path
       style="opacity:1;fill:#0070e4;fill-opacity:1;stroke:none;stroke-width:1.20000005;stroke-linecap:round;stroke-linejoin:round;stroke-miterlimit:4;stroke-dasharray:none;stroke-opacity:1"
       d="m 1223.5433,-726.18201 c 0,0 -15.035,94.83617 -101.7754,90.21007 0,0 99.4623,-33.5397 101.7754,-90.21007 z"
       id="path2398"
       inkscape:connector-curvature="0" />
    <path
       style="opacity:1;fill:#0070e4;fill-opacity:1;stroke:none;stroke-width:1.20000005;stroke-linecap:round;stroke-linejoin:round;stroke-miterlimit:4;stroke-dasharray:none;stroke-opacity:1"
       d="m 1296.4053,-617.46734 c 0,0 -4.6262,91.3666 -50.8877,136.4716 0,0 70.5488,-74.0185 50.8877,-136.4716 z"
       id="path2400"
       inkscape:connector-curvature="0" />
    <path
       style="opacity:1;fill:#0070e4;fill-opacity:1;stroke:none;stroke-width:1.20000005;stroke-linecap:round;stroke-linejoin:round;stroke-miterlimit:4;stroke-dasharray:none;stroke-opacity:1"
       d="m 1260.9778,-663.09044 c 0,0 -6.5424,56.428 -79.3263,50.7034 0,0 60.5169,4.089 65.4237,-6.5424 4.9068,-10.6313 -12.2669,23.7161 -22.0805,31.8941 -9.8136,8.178 44.161,-18.8093 35.9831,-76.0551 z"
       id="path2402"
       inkscape:connector-curvature="0" />
    <path
       style="opacity:1;fill:#0070e4;fill-opacity:1;stroke:none;stroke-width:1.20000005;stroke-linecap:round;stroke-linejoin:round;stroke-miterlimit:4;stroke-dasharray:none;stroke-opacity:1"
       d="m 1220.0879,-675.35734 c 0,0 25.3517,106.3135 13.0848,131.6652 0,0 -2.4534,-98.1356 -13.0848,-131.6652 z"
       id="path2404"
       inkscape:connector-curvature="0" />
    <path
       style="opacity:1;fill:#0070e4;fill-opacity:1;stroke:none;stroke-width:1.20000005;stroke-linecap:round;stroke-linejoin:round;stroke-miterlimit:4;stroke-dasharray:none;stroke-opacity:1"
       d="m 1268.3379,-489.71744 c 0,-3.2712 36.8009,-71.1484 38.4365,-83.4153 1.6356,-12.267 9.8135,80.1441 -22.0805,138.2075 0,0 20.4449,-76.055 12.2669,-88.322 -8.178,-12.2669 -28.6229,33.5298 -28.6229,33.5298 z"
       id="path2406"
       inkscape:connector-curvature="0" />
    <path
       style="opacity:1;fill:#0028d0;fill-opacity:1;stroke:none;stroke-width:1.20000005;stroke-linecap:round;stroke-linejoin:round;stroke-miterlimit:4;stroke-dasharray:none;stroke-opacity:1"
       d="m 601.83368,-912.5184 c 0,0 -151.2924,4.08898 -205.267,80.14407 0,0 53.9746,-90.77543 205.267,-80.14407 z"
       id="path2408"
       inkscape:connector-curvature="0" />
    <path
       style="opacity:1;fill:#0028d0;fill-opacity:1;stroke:none;stroke-width:1.20000005;stroke-linecap:round;stroke-linejoin:round;stroke-miterlimit:4;stroke-dasharray:none;stroke-opacity:1"
       d="m 292.70648,-834.00992 c 0,0 -92.411,332.84328 -152.9279,359.83058 0,0 64.6059,29.4407 152.9279,-359.83058 z"
       id="path2410"
       inkscape:connector-curvature="0" />
    <path
       style="opacity:1;fill:#0028d0;fill-opacity:1;stroke:none;stroke-width:1.20000005;stroke-linecap:round;stroke-linejoin:round;stroke-miterlimit:4;stroke-dasharray:none;stroke-opacity:1"
       d="m 255.90568,-789.8489 c -4.089,-0.8178 -78.5085,126.75846 -86.6865,208.53816 0,0 -2.4534,-94.0466 8.178,-122.66951 0,0 -51.5212,54.79241 -53.1568,76.05511 -1.6356,21.2627 37.6187,-170.10173 131.6653,-161.92376 z"
       id="path2412"
       inkscape:connector-curvature="0" />
    <path
       style="opacity:1;fill:#0028d0;fill-opacity:1;stroke:none;stroke-width:1.20000005;stroke-linecap:round;stroke-linejoin:round;stroke-miterlimit:4;stroke-dasharray:none;stroke-opacity:1"
       d="m 466.89718,-917.42518 c 0,0 -67.0593,75.23729 -107.1313,88.32204 0,0 76.055,-19.62712 107.1313,-88.32204 z"
       id="path2414"
       inkscape:connector-curvature="0" />
    <path
       style="opacity:1;fill:#0028d0;fill-opacity:1;stroke:none;stroke-width:1.20000005;stroke-linecap:round;stroke-linejoin:round;stroke-miterlimit:4;stroke-dasharray:none;stroke-opacity:1"
       d="m 309.87738,-1188.7977 c 0,0 -141.0977,3.4697 -178.107,33.5397 0,0 124.9062,-72.862 178.107,-33.5397 z"
       id="path2416"
       inkscape:connector-curvature="0" />
    <path
       style="opacity:1;fill:#000060;fill-opacity:1;stroke:none;stroke-width:1.20000005;stroke-linecap:round;stroke-linejoin:round;stroke-miterlimit:4;stroke-dasharray:none;stroke-opacity:1"
       d="m 17.272976,-1195.7369 c 0,0 -167.698096,86.7404 -193.141996,145.7239 l 25.4439,-46.2615 c 0,0 -46.2616,13.8784 -45.1051,25.4438 1.1566,11.5654 -3.4696,-55.5138 185.046296,-131.8454 0,0 -52.0443,38.1658 -53.2008,47.4181 -1.1565,9.2523 63.60960009,-50.8877 80.9577,-40.4789 z"
       id="path2418"
       inkscape:connector-curvature="0" />
    <path
       style="opacity:1;fill:#000060;fill-opacity:1;stroke:none;stroke-width:1.20000005;stroke-linecap:round;stroke-linejoin:round;stroke-miterlimit:4;stroke-dasharray:none;stroke-opacity:1"
       d="m 262.45928,-886.94095 c -6.9392,1.15654 -115.6539,74.0185 -135.3151,124.90623 0,0 37.0093,-102.93199 135.3151,-124.90623 z"
       id="path2420"
       inkscape:connector-curvature="0" />
    <path
       style="opacity:1;fill:#00008c;fill-opacity:1;stroke:none;stroke-width:1.20000005;stroke-linecap:round;stroke-linejoin:round;stroke-miterlimit:4;stroke-dasharray:none;stroke-opacity:1"
       d="m 144.49228,-618.62384 c 0,0 -24.2873,62.4531 -56.670404,86.7404 0,0 50.887704,-8.0958 56.670404,-86.7404 z"
       id="path2422"
       inkscape:connector-curvature="0" />
    <path
       style="opacity:1;fill:#00008c;fill-opacity:1;stroke:none;stroke-width:1.20000005;stroke-linecap:round;stroke-linejoin:round;stroke-miterlimit:4;stroke-dasharray:none;stroke-opacity:1"
       d="m 152.58808,-565.42304 c 0,0 -49.7312,87.897 -108.714704,86.7404 0,0 86.740504,20.8178 108.714704,-86.7404 z"
       id="path2424"
       inkscape:connector-curvature="0" />
    <path
       style="opacity:1;fill:#00008c;fill-opacity:1;stroke:none;stroke-width:1.20000005;stroke-linecap:round;stroke-linejoin:round;stroke-miterlimit:4;stroke-dasharray:none;stroke-opacity:1"
       d="m 87.821876,-1159.8842 c 0,0 -167.6982,107.5582 -188.515896,151.5066 -20.8177,43.94853 -1.1565,-61.2965 188.515896,-151.5066 z"
       id="path2426"
       inkscape:connector-curvature="0" />
    <path
       style="opacity:1;fill:#00008c;fill-opacity:1;stroke:none;stroke-width:1.20000005;stroke-linecap:round;stroke-linejoin:round;stroke-miterlimit:4;stroke-dasharray:none;stroke-opacity:1"
       d="m 35.777676,-1255.8769 c -5.7827,2.313 -200.081296,56.6704 -239.403596,106.4016 0,0 49.7311,-70.5489 239.403596,-106.4016 z"
       id="path2428"
       inkscape:connector-curvature="0" />
  </g>
  <g
     transform="matrix(0.12143782,0,0,0.12143782,209.05844,211.83596)"
     id="g2558">
    <rect
       ry="2058.6667"
       y="-1678.5212"
       x="-1721.5266"
       height="4117.3335"
       width="4117.3335"
       id="rect2432"
       style="opacity:1;fill:#000000;fill-opacity:1;stroke:none;stroke-width:8.78139591;stroke-linecap:round;stroke-linejoin:round;stroke-miterlimit:4;stroke-dasharray:none;stroke-opacity:1" />
    <path
       inkscape:connector-curvature="0"
       id="path2434"
       d="m 527.57548,-873.95588 c -195.8619,0.36343 -303.1366,124.66075 -342.6035,303.90624 -38.1933,173.4613 -296.4511,164.08 -453.8906,141.3399 -86.8168,93.3796 -158.9751,185.7074 -157.2188,233.1269 0,0 174.4636,-152.6558 331.480496,-126.4864 157.017,26.1695 61.0618,183.1871 -161.378896,191.9103 -222.4407,8.7231 -165.7389,318.3944 -87.2305,488.4961 78.5085,170.1017 -222.4408,152.6565 -65.4238,383.8203 157.017,231.1639 91.5919,174.4618 122.123,327.11724 30.5311,152.6553 122.1256,21.8093 178.8262,43.6172 56.700496,21.8079 52.338696,113.4002 39.253896,183.1855 -13.0847,69.7854 -30.5303,187.5483 87.2324,231.1641 117.762804,43.6158 270.416404,274.7798 231.162204,366.373 -39.2542,91.5932 -135.209,61.0625 -135.209,61.0625 0,0 300.9505,183.1871 680.4082,-78.5078 0,0 194.0908,-198.4535 261.69532,-274.7812 67.6045,-76.3277 209.3546,-287.8648 257.332,-597.5372 47.9774,-309.67234 69.7851,-462.32754 19.627,-756.73434 0,0 -10.9028,-224.621102 -37.0723,-290.045002 -18.8031,-47.0078 -18.4586,-202.814298 -16.7793,-287.035098 -12.6327,8.3892 -23.9052,7.8448 -33.2363,-4.1523 -68.0875,-87.5411 -104.9776,-285.7673 -115.0215,-346.76182 l -6.2754,-12.38476 c -71.617,124.66838 -313.56052,-115.03321 -313.56052,-115.03321 -110.323,-45.46644 -204.6041,-65.80793 -284.2403,-65.66015 z"
       style="opacity:1;fill:#00a0f0;fill-opacity:1;stroke:#00000c;stroke-width:4.9000001;stroke-linecap:round;stroke-linejoin:round;stroke-miterlimit:4;stroke-dasharray:none;stroke-opacity:1" />
    <path
       inkscape:connector-curvature="0"
       id="path2436"
       d="m 1201.5691,-830.27053 67.0792,47.4181 c 0,0 -94.8362,-39.32233 -99.4623,-50.88772 -4.6262,-11.56539 20.8177,32.3831 30.07,35.85271 9.2523,3.46962 -124.9062,-34.69617 -126.0628,-39.32233 -1.1565,-4.62615 75.1751,60.14004 127.2193,60.14004 0,0 3.4697,37.00925 -129.5323,-2.31308 0,0 50.8877,35.85271 64.7661,30.07002 13.8785,-5.7827 3.4697,28.91347 -83.2708,-17.34809 0,0 37.0093,69.39235 104.0886,48.57464 0,0 -3.4697,187.3593 -503.09462,-179.26356 0,0 -183.8897,-157.2893 -343.4921,53.2008 0,0 42.792,-144.56739 226.6817,-152.66316 0,0 -220.899,-28.91344 -322.6744,107.55813 0,0 108.7147,-134.15857 227.8382,-136.47157 0,0 -202.3944,-1.1566 -300.7002,179.26352 0,0 62.4531,-153.81972 182.7332,-194.29862 0,0 -83.2708,0 -87.897,16.1916 -4.6261,16.1915 40.4789,-113.3408 259.0648,-41.6354 0,0 -84.4274,-69.3924 -271.7867,8.0958 0,0 117.967,-69.3924 173.4809,-58.9835 55.5138,10.4088 -27.757,-39.3224 -43.9485,-35.8527 -16.1916,3.4696 47.4181,-23.1308 123.7497,15.035 76.3315,38.1658 -28.9135,-137.6282 -281.039,-86.7405 0,0 115.6539,-33.5396 136.4716,-30.07 20.8177,3.4696 -133.002,-24.2873 -238.247104,41.6354 0,0 217.429404,-74.0185 241.716704,-70.5489 24.2873,3.4696 -28.9135,-20.8177 -57.827,-5.7827 -28.9134,15.035 13.8785,-20.8177 34.6962,-18.5046 20.8177,2.3131 -121.4366,-76.3316 -148.037,-69.3923 -26.6004,6.9392 274.0998,-24.2874 422.1368,143.4108 0,0 -165.3851,-160.7589 -261.3779,-149.1935 0,0 198.9248,12.7219 344.6487,100.6189 0,0 165.3851,68.2358 183.8897,86.7404 18.5046,18.5046 104.0885,94.8362 104.0885,94.8362 l 78.64472,64.7662 69.3923,114.49738 z"
       style="opacity:1;fill:#0028d0;fill-opacity:1;stroke:none;stroke-width:1.20000005;stroke-linecap:round;stroke-linejoin:round;stroke-miterlimit:4;stroke-dasharray:none;stroke-opacity:1" />
    <path
       inkscape:connector-curvature="0"
       id="path2438"
       d="m 1188.847,-396.56924 c 16.1916,80.9578 -161.916,74.0197 -161.916,74.0197 127.2193,159.6024 57.8281,164.2284 57.8281,164.2284 208.1771,115.653998 -23.1308,203.550798 -23.1308,203.550798 -124.90622,27.757 -238.24812,127.218702 -238.24812,127.218702 737.87192,67.0792 74.0195,247.5001 74.0195,247.5001 32.3831,122.5931 328.45712,94.8359 328.45712,94.8359 -50.8877,78.6446 -37.0098,303.0137 -37.0098,303.0137 0,0 -455.67712,-261.3772 -208.17772,20.8184 247.49942,282.19554 -60.1387,266.00394 -60.1387,266.00394 279.88242,411.7279 -101.7754,261.3769 -101.7754,261.3769 0,0 -328.4569,194.2985 -219.7422,180.42 108.7147,-13.8784 252.1252,34.6957 196.6114,71.705 -55.5139,37.0092 -247.4997,134.1594 -92.5235,106.4024 154.9763,-27.7569 180.4199,43.9472 180.4199,43.9472 l 10.6934,5.545 c 58.4618,-60.6393 127.45312,-132.9606 162.58792,-172.6289 67.6045,-76.3277 209.3546,-287.8648 257.332,-597.5372 47.9774,-309.67234 69.7851,-462.32754 19.627,-756.73434 0,0 -10.9028,-224.621102 -37.0723,-290.045002 -18.0641,-45.1601 -18.462,-191.044298 -16.9766,-277.122998 z"
       style="opacity:1;fill:#34d0fc;fill-opacity:1;stroke:none;stroke-width:1.20000005;stroke-linecap:round;stroke-linejoin:round;stroke-miterlimit:4;stroke-dasharray:none;stroke-opacity:1" />
    <path
       inkscape:connector-curvature="0"
       id="path2440"
       d="m 87.821876,1349.8058 157.289304,-8.0958 346.9618,-8.0958 251.8287,-54.4372 -56.3736,113.4207 -134.1586,120.2801 -150.35,27.7569 -139.9413,25.4439 -225.5251,-82.1143 -49.731204,-127.2193 z"
       style="opacity:1;fill:#0054dc;fill-opacity:1;stroke:none;stroke-width:1.20000005;stroke-linecap:round;stroke-linejoin:round;stroke-miterlimit:4;stroke-dasharray:none;stroke-opacity:1" />
    <path
       sodipodi:nodetypes="ccccccc"
       inkscape:connector-curvature="0"
       id="path2442"
       d="m 671.34638,1588.3038 c 0,0 -427.6027,319.0015 -715.110704,-262.4823 0,0 248.966604,-182.399 471.407304,-138.238 0,0 91.5932,-31.0763 147.2034,-16.3559 0,0 -124.3051,63.7881 -111.2204,106.3135 0,0 -93.2288,-111.2203 -430.161004,58.8814 0,0 278.050904,350.0169 637.881404,251.8813 z"
       style="opacity:1;fill:#0080e8;fill-opacity:1;stroke:none;stroke-width:1.20000005;stroke-linecap:round;stroke-linejoin:round;stroke-miterlimit:4;stroke-dasharray:none;stroke-opacity:1" />
    <path
       inkscape:connector-curvature="0"
       id="path2444"
       d="m 530.77638,1515.1909 c 0,0 145.7239,-90.2101 149.1935,-122.5932 0,0 -272.9432,134.1586 -378.1883,-5.7827 l 542.1201,-107.638 c 0,0 -122.2964,116.8903 -122.2964,106.4815 0,-10.4089 27.757,24.2873 65.9228,6.9391 0,0 -198.9248,186.2028 -256.7517,122.5933 z"
       style="opacity:1;fill:#008cec;fill-opacity:1;stroke:none;stroke-width:1.20000005;stroke-linecap:round;stroke-linejoin:round;stroke-miterlimit:4;stroke-dasharray:none;stroke-opacity:1" />
    <path
       inkscape:connector-curvature="0"
       id="path2446"
       d="m 771.11758,1422.6555 c 0,0 -115.435,154.9885 -270.4112,152.6754 -154.9763,-2.3131 -179.2636,4.6262 -179.2636,4.6262 0,0 111.0278,-55.5139 114.4974,-64.7662 3.4696,-9.2523 157.2893,63.6096 383.971,-175.794 z"
       style="opacity:1;fill:#001cd0;fill-opacity:1;stroke:none;stroke-width:1.20000005;stroke-linecap:round;stroke-linejoin:round;stroke-miterlimit:4;stroke-dasharray:none;stroke-opacity:1" />
    <path
       sodipodi:nodetypes="ccccc"
       inkscape:connector-curvature="0"
       id="path2448"
       d="m -74.485024,424.57936 -41.707096,8.1776 80.370296,-155.2376 c 0,0 119.0593,54.1686 140.434404,88.1791 0,0 -42.439204,53.6814 -179.097604,58.8809 z"
       style="opacity:1;fill:#ccf0fc;fill-opacity:1;stroke:none;stroke-width:1.20000005;stroke-linecap:round;stroke-linejoin:round;stroke-miterlimit:4;stroke-dasharray:none;stroke-opacity:1" />
    <path
       inkscape:connector-curvature="0"
       id="path2450"
       d="m -148.11212,265.55026 -80.9577,14.4567 -28.9135,89.0535 46.8399,60.7183 c 0,0 80.0314,8.2696 94.9513,2.9782 14.9199,-5.2912 69.277196,-15.7001 95.877596,-59.6486 26.6004001,-43.9485 1.7348,-86.7403 1.7348,-86.7403 0,0 -111.027696,-32.3831 -129.532396,-20.8178 z"
       style="opacity:1;fill:#84e0fc;fill-opacity:1;stroke:none;stroke-width:1.20000005;stroke-linecap:round;stroke-linejoin:round;stroke-miterlimit:4;stroke-dasharray:none;stroke-opacity:1" />
    <path
       inkscape:connector-curvature="0"
       id="path2452"
       d="m -138.27882,264.49586 c -10.6004,0.066 -20.1604,0.4563 -28.211,0.9336 a 86.937767,86.937767 0 0 0 -26.8261,62.6836 86.937767,86.937767 0 0 0 86.9375,86.9395 86.937767,86.937767 0 0 0 86.937496,-86.9395 86.937767,86.937767 0 0 0 -16.3809,-50.5937 c -32.8954,-10.7227 -71.784696,-13.2143 -102.456996,-13.0235 z"
       style="opacity:1;fill:#000058;fill-opacity:1;stroke:none;stroke-width:1.24255311;stroke-linecap:round;stroke-linejoin:round;stroke-miterlimit:4;stroke-dasharray:none;stroke-opacity:1" />
    <path
       sodipodi:nodetypes="cscc"
       inkscape:connector-curvature="0"
       id="path2454"
       d="m 720.96028,361.60866 c -2.0572,0.5878 108.2912,40.5399 214.0625,25.1972 158.98812,-23.062 163.86132,-76.4648 163.86132,-76.4648 -6.2753,-60.9275 -269.85262,-164.0416 -377.92382,51.2676 z"
       style="opacity:1;fill:#007ce8;fill-opacity:1;stroke:none;stroke-width:1.20000005;stroke-linecap:round;stroke-linejoin:round;stroke-miterlimit:4;stroke-dasharray:none;stroke-opacity:1" />
    <path
       inkscape:connector-curvature="0"
       id="path2456"
       d="m 980.47348,230.21606 130.30232,77.4182 c 0,0 -106.8588,79.0537 -115.03682,69.2401 -8.1779,-9.8136 -9.2683,-98.1357 -9.2683,-98.1357 z"
       style="opacity:1;fill:#ccf0fc;fill-opacity:1;stroke:none;stroke-width:1.20000005;stroke-linecap:round;stroke-linejoin:round;stroke-miterlimit:4;stroke-dasharray:none;stroke-opacity:1" />
    <path
       inkscape:connector-curvature="0"
       id="path2458"
       d="m 940.67408,227.49016 51.2486,11.9944 c 0,0 64.33332,77.9633 8.17792,133.5734 0,0 -95.95292,25.079 -132.48212,15.2655 -36.5292,-9.8135 73.0556,-160.8333 73.0556,-160.8333 z"
       style="opacity:1;fill:#84e0fc;fill-opacity:1;stroke:none;stroke-width:1.20000005;stroke-linecap:round;stroke-linejoin:round;stroke-miterlimit:4;stroke-dasharray:none;stroke-opacity:1" />
    <path
       inkscape:connector-curvature="0"
       id="path2460"
       d="m 933.66928,225.80576 c -42.5875,0.2024 -86.6151,16.3785 -109.2989,26.1075 a 86.937767,86.937767 0 0 0 -16.7031,51.086 86.937767,86.937767 0 0 0 86.9375,86.9394 86.937767,86.937767 0 0 0 86.9375,-86.9394 86.937767,86.937767 0 0 0 -47.1094,-77.1895 c -0.2547,10e-5 -0.5088,-0.01 -0.7636,0 z"
       style="opacity:1;fill:#000058;fill-opacity:1;stroke:none;stroke-width:1.24255311;stroke-linecap:round;stroke-linejoin:round;stroke-miterlimit:4;stroke-dasharray:none;stroke-opacity:1" />
    <path
       inkscape:connector-curvature="0"
       id="path2462"
       d="m 934.94468,216.99136 c -33.808,-0.3554 -70.1983,7.2364 -107.127,27.9454 0,0 -71.9648,32.1661 -106.8574,116.6719 0,0 57.2455,-136.2994 208.8105,-127.5762 107.98602,6.215 135.43892,56.4226 169.11332,76.3086 -0.745,-0.01 -1.4977,-0.01 -2.2832,0.02 0,0 -97.15452,77.1916 -161.57812,76.4453 17.6017,0.2874 99.32172,-2.2825 182.86132,-69.1621 8.7324,1.534 18.5629,0.8555 30.5098,-2.9219 0,0 -20.7172,-3.8171 -35.4375,-21.8086 -10.8103,-13.2125 -84.5426,-74.939 -178.01172,-75.9218 z m 0.078,169.8144 c -0.6386,-0.01 -1.1293,-0.024 -1.5957,-0.039 0.5303,0.017 1.0608,0.033 1.5957,0.039 z m -1.5957,-0.039 c -0.6759,-0.022 -1.3533,-0.038 -2.0215,-0.078 0,0 0.8312,0.04 2.0215,0.078 z m -212.4668,-25.1583 -4.9082,8.1778 c 23.5263,9.8318 79.5005,14.6731 116.4512,16.8847 -45.9418,-6.5504 -111.543,-25.0625 -111.543,-25.0625 z m 111.543,25.0625 c 14.5964,2.0812 27.228,2.9669 35.1152,1.6524 0,0 -14.6944,-0.4301 -35.1152,-1.6524 z"
       style="opacity:1;fill:#000000;fill-opacity:1;stroke:none;stroke-width:1.20000005;stroke-linecap:round;stroke-linejoin:round;stroke-miterlimit:4;stroke-dasharray:none;stroke-opacity:1" />
    <path
       sodipodi:nodetypes="ccccc"
       inkscape:connector-curvature="0"
       id="path2464"
       d="m 916.88378,279.09676 c 6.1061,13.2417 5.7795,33.2008 -0.1984,53.0713 l 33.257,20.7175 c 0,0 35.4653,-49.7614 -0.5452,-101.952 z"
       style="opacity:1;fill:#a4e8fc;fill-opacity:1;stroke:none;stroke-width:1.20000005;stroke-linecap:round;stroke-linejoin:round;stroke-miterlimit:4;stroke-dasharray:none;stroke-opacity:1" />
    <ellipse
       ry="37.394768"
       rx="24.302582"
       cy="304.67993"
       cx="885.99121"
       id="ellipse2466"
       style="opacity:1;fill:#000000;fill-opacity:1;stroke:none;stroke-width:1.88705122;stroke-linecap:round;stroke-linejoin:round;stroke-miterlimit:4;stroke-dasharray:none;stroke-opacity:1" />
    <path
       inkscape:connector-curvature="0"
       id="path2468"
       d="m 687.70228,381.23596 c 0,0 -60.5169,5.452 -26.1695,-41.9802 34.3475,-47.4322 104.678,-150.4746 267.6921,-149.3842 163.01412,1.0904 234.98032,73.0564 234.98032,73.0564 0,0 -88.8673,-101.952 -267.14702,-78.5084 -178.2796,23.4435 -241.5226,135.209 -241.5226,135.209 0,0 -56.1553,89.4125 32.1667,61.6074 z"
       style="opacity:1;fill:#000000;fill-opacity:1;stroke:none;stroke-width:1.20000005;stroke-linecap:round;stroke-linejoin:round;stroke-miterlimit:4;stroke-dasharray:none;stroke-opacity:1" />
    <path
       inkscape:connector-curvature="0"
       id="path2470"
       d="m 559.11158,145.27026 c 0,0 -19.6612,-117.967102 -13.3002,-130.689002 0,0 27.1787,34.6962 30.07,42.2137 0,0 20.2395,-53.2008001 17.9264,-85.5839 0,0 13.8784,10.4088 12.1436,15.6132 0,0 311.1091,-170.589498 519.28612,-119.701798 0,0 142.2543,67.079298 158.4459,183.889798 0,0 -93.6797,-91.3666 -321.51792,-13.8785 -227.8382,77.488102 -245.1863,56.6704 -245.1863,56.6704 0,0 -58.9835,-5.7827 -101.7755,47.418102 l -17.348,-19.6612 -18.5047,5.7827 -11.5654,-12.7219 z"
       style="opacity:1;fill:#000000;fill-opacity:1;stroke:none;stroke-width:1.20000005;stroke-linecap:round;stroke-linejoin:round;stroke-miterlimit:4;stroke-dasharray:none;stroke-opacity:1" />
    <path
       inkscape:connector-curvature="0"
       id="path2472"
       d="m 531.93288,136.59626 c -4.6261,-3.4698 -23.1307,-21.9744 -23.1307,-34.6963 0,-12.721902 -4.0479,26.0221 23.1307,34.6963 z"
       style="opacity:1;fill:#000000;fill-opacity:1;stroke:none;stroke-width:1.20000005;stroke-linecap:round;stroke-linejoin:round;stroke-miterlimit:4;stroke-dasharray:none;stroke-opacity:1" />
    <path
       inkscape:connector-curvature="0"
       id="path2474"
       d="m -329.18822,348.67116 c 0,0 82.192,-65.1945 129.6101,-70.9772 0,0 -118.3149,162.6674 83.386,155.0631 0,0 -220.0131,19.2744 -212.9961,-84.0859 z"
       style="opacity:1;fill:#007ce8;fill-opacity:1;stroke:none;stroke-width:1.20000005;stroke-linecap:round;stroke-linejoin:round;stroke-miterlimit:4;stroke-dasharray:none;stroke-opacity:1" />
    <path
       inkscape:connector-curvature="0"
       id="path2476"
       d="m -130.01822,259.55976 c -136.5089,-0.5172 -237.2364,93.8711 -237.2364,93.8711 l 26.9864,6.543 c 0.016,-0.2287 0.085,-0.4777 0.1758,-0.7363 -0.1132,0.4523 -0.1758,0.7363 -0.1758,0.7363 30.2585,103.8602 224.0761,72.7832 224.0761,72.7832 -162.3184,12.3671 -208.4209,-74.5071 -212.9961,-84.0859 25.3354,-18.6994 85.42,-50.0332 85.42,-50.0332 181.550896,-90.7754 348.3808,67.0605 348.3808,67.0605 -81.805204,-79.5563 -163.126204,-105.8677 -234.6308,-106.1387 z m 234.6308,106.1387 c -31.894804,40.8905 -179.097604,58.8809 -179.097604,58.8809 194.635604,3.2711 179.097604,-58.881 179.097604,-58.8809 z"
       style="opacity:1;fill:#000000;fill-opacity:1;stroke:none;stroke-width:1.20000005;stroke-linecap:round;stroke-linejoin:round;stroke-miterlimit:4;stroke-dasharray:none;stroke-opacity:1" />
    <path
       sodipodi:nodetypes="ccccc"
       inkscape:connector-curvature="0"
       id="path2478"
       d="m -78.577124,310.17316 c 6.1061,13.2417 5.7795,33.2007 -0.1984,53.0713 l 33.257,20.7175 c 0,0 35.4653,-49.7614 -0.5452,-101.952 z"
       style="opacity:1;fill:#a4e8fc;fill-opacity:1;stroke:none;stroke-width:1.20000005;stroke-linecap:round;stroke-linejoin:round;stroke-miterlimit:4;stroke-dasharray:none;stroke-opacity:1" />
    <ellipse
       ry="37.394768"
       rx="24.302582"
       cy="335.75635"
       cx="-109.46962"
       id="ellipse2480"
       style="opacity:1;fill:#000000;fill-opacity:1;stroke:none;stroke-width:1.88705122;stroke-linecap:round;stroke-linejoin:round;stroke-miterlimit:4;stroke-dasharray:none;stroke-opacity:1" />
    <path
       inkscape:connector-curvature="0"
       id="path2482"
       d="m 118.47018,334.94256 c 0,0 -196.000704,-198.6459 -464.3504,-28.3352 0,0 217.3302,-213.411402 464.3504,28.3352 z"
       style="opacity:1;fill:#000000;fill-opacity:1;stroke:none;stroke-width:1.20000005;stroke-linecap:round;stroke-linejoin:round;stroke-miterlimit:4;stroke-dasharray:none;stroke-opacity:1" />
    <path
       inkscape:connector-curvature="0"
       id="path2484"
       d="m 202.74888,197.23156 c 0,0 8.178,-86.6864 26.1695,-113.673702 0,0 -38.4365,41.707602 -36.8009,53.156802 0,0 -11.4491,-58.881402 -17.9915,-62.970402 0,0 3.2712,35.165402 0.8178,44.161102 -2.4534,8.9957 -14.7203,-49.067802 -13.0847,-53.974602 1.6356,-4.9068 -12.267,34.3475 -8.9958,37.618602 3.2712,3.2712 -22.0805,-39.254202 -18.8093,-52.338902 0,0 -9.8136,23.7162 -3.2712,40.0721 0,0 -25.3517,-47.4322 -31.894104,-47.4322 l -69.5127,-48.2500001 c 0,0 13.0848,33.5296001 4.089,27.8051001 0,0 -62.9703,-44.9789 -71.1483,-44.9789 0,0 17.1737,20.4449999 14.7203,23.71609992 C -25.416424,3.4138579 -142.36132,-102.08184 -347.62822,6.6850579 l -66.2416,52.3390001 c 0,0 11.4492,32.7119 34.3475,45.796602 22.8983,13.0848 194.6356,-59.699102 358.194896,17.1737 163.559304,76.8729 176.644104,58.0636 224.076304,75.2372 z"
       style="opacity:1;fill:#000000;fill-opacity:1;stroke:none;stroke-width:1.20000005;stroke-linecap:round;stroke-linejoin:round;stroke-miterlimit:4;stroke-dasharray:none;stroke-opacity:1" />
    <path
       inkscape:connector-curvature="0"
       id="path2486"
       d="m 609.65358,1222.4798 c -55.8382,-0.064 -116.8229,64.096 -130.1523,78.8984 l -3.1406,0.1914 -4.125,0.25 v 0 l -61.7636,-37.3633 c -66.2415,-40.0721 -179.0977,15.5373 -227.3477,32.711 -48.25,17.1738 -117.763704,29.4414 -117.763704,29.4414 8.9958,45.7966 164.377004,42.5254 164.377004,42.5254 62.9704,26.9873 325.4844,26.1699 325.4844,26.1699 94.8644,-47.4322 288.6816,-116.127 288.6816,-116.127 0,0 -163.5601,-50.7031 -228.166,-56.4277 -2.019,-0.1789 -4.0465,-0.2672 -6.0821,-0.2695 z"
       style="opacity:1;fill:#001cd0;fill-opacity:1;stroke:none;stroke-width:1.20000005;stroke-linecap:round;stroke-linejoin:round;stroke-miterlimit:4;stroke-dasharray:none;stroke-opacity:1" />
    <path
       inkscape:connector-curvature="0"
       id="path2488"
       d="m 361.54228,1260.5755 c -46.2669,-0.1668 -89.2528,13.9281 -109.4922,22.1502 -28.5948,11.6167 -125.2119,38.6384 -168.445304,50.5411 -46.4717,-17.0173 -84.48829991,-33.6446 -84.48829991,-33.6446 -23.14910009,-11.5746 -37.20730009,14.9465 -42.88080009,26.1992 8.4175,-6.4597 32.25,-13.1152 32.25,-13.1152 35.983,-2.4534 53.9746,51.5215 53.9746,51.5215 53.1567,151.2923 228.165904,212.6275 253.517604,219.1699 25.3517,6.5423 105.4961,-40.8906 105.4961,-40.8906 -59.6992,15.5382 -195.4548,-53.1572 -246.1582,-105.4961 -50.7034,-52.339 74.4199,-67.8769 74.4199,-67.8769 -25.5205,2.0692 -70.5231,-9.9789 -114.0449,-24.5938 29.5089,-5.6795 78.4125,-19.1986 146.7675,-51.4043 120.2801,-56.6705 209.7754,8.6836 209.7754,8.6836 -31.7677,-31.1768 -72.356,-41.106 -110.6914,-41.244 z m -405.306604,65.246 c -1.8039,1.3844 -2.9141,2.7597 -2.9141,4.0585 0,1.8776 0.9713,-0.2051 2.9141,-4.0585 z"
       style="opacity:1;fill:#000000;fill-opacity:1;stroke:none;stroke-width:1.20000005;stroke-linecap:round;stroke-linejoin:round;stroke-miterlimit:4;stroke-dasharray:none;stroke-opacity:1" />
    <path
       inkscape:connector-curvature="0"
       id="path2490"
       d="m 959.21028,1212.1165 c 0,0 -35.5634,36.2851 -60.2774,57.6133 13.1291,-17.5766 23.4766,-35.168 23.4766,-35.168 0,0 -80.1436,63.7894 -161.1055,89.9589 0,0 44.1608,-10.632 56.4278,-12.2676 12.2669,-1.6356 -37.6176,97.3176 -46.6133,110.4023 0,0 72.7833,-107.9497 95.6816,-120.2168 4.5728,-2.4496 9.5379,-6.643 14.5547,-11.7617 18.8766,-4.7297 46.7296,-4.0562 64.7715,31.0254 0,0 7.3605,-33.8947 -8.1777,-60.5176 0,0 22.8973,-24.5344 21.2617,-49.0682 z"
       style="opacity:1;fill:#000000;fill-opacity:1;stroke:#000000;stroke-width:1.20000005;stroke-linecap:round;stroke-linejoin:round;stroke-miterlimit:4;stroke-dasharray:none;stroke-opacity:1" />
    <path
       inkscape:connector-curvature="0"
       id="path2492"
       d="m 315.66008,1386.815 c 0,0 98.3058,12.722 120.2801,1.1565 21.9742,-11.5653 101.7754,-1.1565 101.7754,-1.1565 0,0 97.1493,-2.313 190.829,-57.8269 0,0 -197.7682,114.4973 -412.8845,57.8269 z"
       style="opacity:1;fill:#000000;fill-opacity:1;stroke:none;stroke-width:1.20000005;stroke-linecap:round;stroke-linejoin:round;stroke-miterlimit:4;stroke-dasharray:none;stroke-opacity:1" />
    <path
       inkscape:connector-curvature="0"
       id="path2494"
       d="m 162.67688,225.85456 c 0,0 201.1779,27.8051 145.5678,354.9238 0,0 -57.2458,196.2712 -29.4407,246.9746 0,0 -55.667,17.8017 -116.9636,-1.8594 -61.2966,-19.6612 -136.471604,62.4531 -99.462304,138.7847 0,0 -141.0978,-45.1051 -68.2358999,-233.6209 C 67.004176,542.54146 234.70238,459.27066 196.53658,323.95556 c -38.1658,-135.3151 -33.8597,-98.101 -33.8597,-98.101 z"
       style="opacity:1;fill:#000000;fill-opacity:1;stroke:none;stroke-width:1.20000005;stroke-linecap:round;stroke-linejoin:round;stroke-miterlimit:4;stroke-dasharray:none;stroke-opacity:1" />
    <path
       inkscape:connector-curvature="0"
       id="path2496"
       d="m 311.03398,978.55666 c 0,0 -82.6926,-31.8048 -119.7018,-8.674 -37.0093,23.1308 119.7018,8.674 119.7018,8.674 z"
       style="opacity:1;fill:#000000;fill-opacity:1;stroke:none;stroke-width:1.20000005;stroke-linecap:round;stroke-linejoin:round;stroke-miterlimit:4;stroke-dasharray:none;stroke-opacity:1" />
    <path
       inkscape:connector-curvature="0"
       id="path2498"
       d="m 533.08948,969.30436 c 0,0 94.2579,-43.9485 146.3022,0 0,0 -72.862,-15.6133 -104.0885,-4.0479 -31.2266,11.5654 -42.2137,4.0479 -42.2137,4.0479 z"
       style="opacity:1;fill:#000000;fill-opacity:1;stroke:none;stroke-width:1.20000005;stroke-linecap:round;stroke-linejoin:round;stroke-miterlimit:4;stroke-dasharray:none;stroke-opacity:1" />
    <path
       inkscape:connector-curvature="0"
       id="path2500"
       d="m 266.50718,1040.4316 c 0,0 -97.1493,-19.0829 -104.0885,-26.0222 0,0 -43.3702,8.6741 -59.5618,-2.8913 0,0 27.757,15.6133 49.7312,16.1915 0,0 79.2229,36.431 113.9191,12.722 z"
       style="opacity:1;fill:#000000;fill-opacity:1;stroke:none;stroke-width:1.20000005;stroke-linecap:round;stroke-linejoin:round;stroke-miterlimit:4;stroke-dasharray:none;stroke-opacity:1" />
    <path
       inkscape:connector-curvature="0"
       id="path2502"
       d="m 784.05848,739.15306 c 0,0 157.2893,240.5602 198.9247,259.0648 0,0 -145.7239,-90.2101 -198.9247,-259.0648 z"
       style="opacity:1;fill:#000000;fill-opacity:1;stroke:none;stroke-width:1.20000005;stroke-linecap:round;stroke-linejoin:round;stroke-miterlimit:4;stroke-dasharray:none;stroke-opacity:1" />
    <path
       inkscape:connector-curvature="0"
       id="path2504"
       d="m 721.60528,762.28386 c 0,0 138.7847,145.7238 4.6262,219.7424 0,0 159.6024,-46.2615 -4.6262,-219.7424 z"
       style="opacity:1;fill:#000000;fill-opacity:1;stroke:none;stroke-width:1.20000005;stroke-linecap:round;stroke-linejoin:round;stroke-miterlimit:4;stroke-dasharray:none;stroke-opacity:1" />
    <path
       inkscape:connector-curvature="0"
       id="path2506"
       d="m 465.26158,359.97326 c 0,0 271.5085,173.3729 181.5509,426.8898 0,0 47.4322,65.4238 62.1525,1.6356 0,0 144.1177,104.0975 17.2665,193.5276 0,0 -82.6902,-92.1209 -257.6987,2.7435 0,0 39.2542,-62.1525 39.2542,-70.3305 0,-8.1779 -98.1356,27.8051 -99.7711,-9.8136 -1.6356,-37.6185 78.5084,-101.4067 78.5084,-101.4067 0,0 -153.7457,-49.0677 -94.8644,-121.0338 0,0 122.6695,68.6948 153.7458,39.2541 0,0 8.178,-88.322 45.7966,-96.5 0,0 -191.3644,-19.6271 -125.9407,-264.966 z"
       style="opacity:1;fill:#34d0fc;fill-opacity:1;stroke:none;stroke-width:1.20000005;stroke-linecap:round;stroke-linejoin:round;stroke-miterlimit:4;stroke-dasharray:none;stroke-opacity:1" />
    <path
       inkscape:connector-curvature="0"
       id="path2508"
       d="m 644.11718,992.43516 c 0,0 -17.3481,18.50464 -40.4788,21.97424 -23.1308,3.4697 99.4623,-3.4696 109.8712,-24.28734 0,0 -67.0793,13.87844 -69.3924,2.3131 z"
       style="opacity:1;fill:#000000;fill-opacity:1;stroke:none;stroke-width:1.20000005;stroke-linecap:round;stroke-linejoin:round;stroke-miterlimit:4;stroke-dasharray:none;stroke-opacity:1" />
    <path
       inkscape:connector-curvature="0"
       id="path2510"
       d="m 334.16468,991.27866 c 0,0 62.4532,32.38304 82.1143,32.38304 0,0 -82.1143,6.9393 -119.1235,33.5397 0,0 62.4531,-39.3223 37.0092,-65.92274 z"
       style="opacity:1;fill:#000000;fill-opacity:1;stroke:none;stroke-width:1.20000005;stroke-linecap:round;stroke-linejoin:round;stroke-miterlimit:4;stroke-dasharray:none;stroke-opacity:1" />
    <path
       inkscape:connector-curvature="0"
       id="path2512"
       d="m -274.17482,-841.83592 c 0,0 77.4881,41.6354 412.8844,-244.02978 0,0 -134.1585039,82.1143 -136.4716039,76.3316 -2.31310001,-5.7827 24.2872999,-24.2873 26.6003999,-34.6962 0,0 -195.455096,143.41088 -194.298496,163.07205 0,0 -91.3666,56.67041 -108.7147,39.32233 z"
       style="opacity:1;fill:#000060;fill-opacity:1;stroke:none;stroke-width:1.20000005;stroke-linecap:round;stroke-linejoin:round;stroke-miterlimit:4;stroke-dasharray:none;stroke-opacity:1" />
    <path
       inkscape:connector-curvature="0"
       id="path2514"
       d="m -173.55592,-726.18201 c 0,0 108.714696,-179.26356 133.001996,-187.35934 0,0 -13.8785,0 -25.4439,8.09578 -11.5654,8.09577 20.8177,-47.41811 47.4181,-57.82696 26.6004001,-10.40885 -142.254296,46.26156 -164.228496,143.41085 0,0 50.8877,-69.39235 69.3923,-72.86196 0,0 -57.8269,57.82695 -54.3573,70.54888 0,0 61.2965,-57.82695 72.861896,-58.98349 0,0 -87.896896,120.28006 -78.644596,154.97624 z"
       style="opacity:1;fill:#000060;fill-opacity:1;stroke:none;stroke-width:1.20000005;stroke-linecap:round;stroke-linejoin:round;stroke-miterlimit:4;stroke-dasharray:none;stroke-opacity:1" />
    <path
       inkscape:connector-curvature="0"
       id="path2516"
       d="m 10.333776,-797.88744 c 0,0 141.097804,-183.88972 174.637404,-188.51587 0,0 -61.2966,23.13078 -63.6096,34.69617 -2.3131,11.56539 -3.4697,-16.19155 9.2523,-18.50462 0,0 -99.462404,72.86196 -99.462404,94.8362 0,0 55.5139,-49.73118 70.548904,-48.57464 0,0 -92.5231039,104.08852 -91.366604,126.06276 z"
       style="opacity:1;fill:#000060;fill-opacity:1;stroke:none;stroke-width:1.20000005;stroke-linecap:round;stroke-linejoin:round;stroke-miterlimit:4;stroke-dasharray:none;stroke-opacity:1" />
    <path
       inkscape:connector-curvature="0"
       id="path2518"
       d="m -100.69402,-775.91319 c 20.817696,-16.19155 109.8712961,-151.50663 156.132796,-165.3851 0,0 -154.9762,97.14929 -173.480796,153.8197 -18.5047,56.67042 17.348,11.5654 17.348,11.5654 z"
       style="opacity:1;fill:#00008c;fill-opacity:1;stroke:none;stroke-width:1.20000005;stroke-linecap:round;stroke-linejoin:round;stroke-miterlimit:4;stroke-dasharray:none;stroke-opacity:1" />
    <path
       inkscape:connector-curvature="0"
       id="path2520"
       d="m 1258.5244,-824.19636 c -3.2712,-0.8178 -295.22462,-32.71187 -354.10602,-129.21187 0,0 61.3348,21.26271 69.5127,16.35593 0,0 -89.9576,-40.88983 -85.8686,-52.33898 0,0 22.0805,12.26695 28.6229,9.81356 6.5423,-2.45339 -6.5424,-21.26268 -11.4492,-22.08048 -4.9068,-0.8178 42.5254,-10.6314 60.517,2.45336 0,0 -29.4407,-23.71616 -34.3475,-23.71616 -4.9068,0 13.9026,-9.8135 20.4449,-6.5423 6.5424,3.2712 -2.4534,-14.7204 -5.7245,-14.7204 -3.2712,0 12.2669,-13.9025 30.2584,-12.2669 17.9916,1.6356 -50.7034,-48.25 -56.4279,-46.6144 -5.7246,1.6356 9.8135,-12.267 14.7203,-8.178 4.9068,4.089 -105.4958,-99.7712 -134.9364,-104.678 -29.4407,-4.9067 68.6949,-2.4534 156.1991,92.4111 l -4.9068,-14.7204 c 0,0 28.6229,30.2585 36.8009,41.7076 8.1779,11.4492 69.51272,17.1738 84.23302,78.5085 14.7204,61.33478 58.8814,44.97885 58.8814,44.97885 0,0 58.0636,12.26695 21.2627,53.97458 0,0 49.8856,5.72457 31.0763,28.62288 -18.8093,22.89831 31.0763,-13.90254 75.2373,66.24153 z"
       style="opacity:1;fill:#0070e4;fill-opacity:1;stroke:none;stroke-width:1.20000005;stroke-linecap:round;stroke-linejoin:round;stroke-miterlimit:4;stroke-dasharray:none;stroke-opacity:1" />
    <path
       inkscape:connector-curvature="0"
       id="path2522"
       d="m 1351.7532,-595.21334 c 0,0 -37.6187,332.0254 -31.0763,366.373 6.5424,34.3474 -16.3559,-119.3983 -16.3559,-137.3898 0,-17.9916 -24.6088,46.1786 -24.6088,46.1786 0,0 14.7952,267.855298 50.7783,321.8297979 35.983,53.9746001 19.6271,210.9916021 19.6271,210.9916021 l 19.6271,389.2712 c 0,0 32.7119,-135.7543 34.3475,-186.4577 1.6356,-50.7033 49.0678,-287.8644 63.7881,-304.2203 14.7203,-16.355902 19.6271,-178.279702 19.6271,-178.279702 0,0 -8.1779,-358.194898 -58.8813,-435.067798 -50.7034,-76.8729 -76.8729,-93.2289 -76.8729,-93.2289 z"
       style="opacity:1;fill:#0070e4;fill-opacity:1;stroke:none;stroke-width:1.20000005;stroke-linecap:round;stroke-linejoin:round;stroke-miterlimit:4;stroke-dasharray:none;stroke-opacity:1" />
    <path
       inkscape:connector-curvature="0"
       id="path2524"
       d="m 1266.3353,-644.06774 c 0,0 -6.9393,95.9928 -37.0093,130.6889 0,0 43.9485,-28.9134 37.0093,-130.6889 z"
       style="opacity:1;fill:#0070e4;fill-opacity:1;stroke:none;stroke-width:1.20000005;stroke-linecap:round;stroke-linejoin:round;stroke-miterlimit:4;stroke-dasharray:none;stroke-opacity:1" />
    <path
       inkscape:connector-curvature="0"
       id="path2526"
       d="m 1223.5433,-726.18201 c 0,0 -15.035,94.83617 -101.7754,90.21007 0,0 99.4623,-33.5397 101.7754,-90.21007 z"
       style="opacity:1;fill:#0070e4;fill-opacity:1;stroke:none;stroke-width:1.20000005;stroke-linecap:round;stroke-linejoin:round;stroke-miterlimit:4;stroke-dasharray:none;stroke-opacity:1" />
    <path
       inkscape:connector-curvature="0"
       id="path2528"
       d="m 1296.4053,-617.46734 c 0,0 -4.6262,91.3666 -50.8877,136.4716 0,0 70.5488,-74.0185 50.8877,-136.4716 z"
       style="opacity:1;fill:#0070e4;fill-opacity:1;stroke:none;stroke-width:1.20000005;stroke-linecap:round;stroke-linejoin:round;stroke-miterlimit:4;stroke-dasharray:none;stroke-opacity:1" />
    <path
       inkscape:connector-curvature="0"
       id="path2530"
       d="m 1260.9778,-663.09044 c 0,0 -6.5424,56.428 -79.3263,50.7034 0,0 60.5169,4.089 65.4237,-6.5424 4.9068,-10.6313 -12.2669,23.7161 -22.0805,31.8941 -9.8136,8.178 44.161,-18.8093 35.9831,-76.0551 z"
       style="opacity:1;fill:#0070e4;fill-opacity:1;stroke:none;stroke-width:1.20000005;stroke-linecap:round;stroke-linejoin:round;stroke-miterlimit:4;stroke-dasharray:none;stroke-opacity:1" />
    <path
       inkscape:connector-curvature="0"
       id="path2532"
       d="m 1220.0879,-675.35734 c 0,0 25.3517,106.3135 13.0848,131.6652 0,0 -2.4534,-98.1356 -13.0848,-131.6652 z"
       style="opacity:1;fill:#0070e4;fill-opacity:1;stroke:none;stroke-width:1.20000005;stroke-linecap:round;stroke-linejoin:round;stroke-miterlimit:4;stroke-dasharray:none;stroke-opacity:1" />
    <path
       inkscape:connector-curvature="0"
       id="path2534"
       d="m 1268.3379,-489.71744 c 0,-3.2712 36.8009,-71.1484 38.4365,-83.4153 1.6356,-12.267 9.8135,80.1441 -22.0805,138.2075 0,0 20.4449,-76.055 12.2669,-88.322 -8.178,-12.2669 -28.6229,33.5298 -28.6229,33.5298 z"
       style="opacity:1;fill:#0070e4;fill-opacity:1;stroke:none;stroke-width:1.20000005;stroke-linecap:round;stroke-linejoin:round;stroke-miterlimit:4;stroke-dasharray:none;stroke-opacity:1" />
    <path
       inkscape:connector-curvature="0"
       id="path2536"
       d="m 601.83368,-912.5184 c 0,0 -151.2924,4.08898 -205.267,80.14407 0,0 53.9746,-90.77543 205.267,-80.14407 z"
       style="opacity:1;fill:#0028d0;fill-opacity:1;stroke:none;stroke-width:1.20000005;stroke-linecap:round;stroke-linejoin:round;stroke-miterlimit:4;stroke-dasharray:none;stroke-opacity:1" />
    <path
       inkscape:connector-curvature="0"
       id="path2538"
       d="m 292.70648,-834.00992 c 0,0 -92.411,332.84328 -152.9279,359.83058 0,0 64.6059,29.4407 152.9279,-359.83058 z"
       style="opacity:1;fill:#0028d0;fill-opacity:1;stroke:none;stroke-width:1.20000005;stroke-linecap:round;stroke-linejoin:round;stroke-miterlimit:4;stroke-dasharray:none;stroke-opacity:1" />
    <path
       inkscape:connector-curvature="0"
       id="path2540"
       d="m 255.90568,-789.8489 c -4.089,-0.8178 -78.5085,126.75846 -86.6865,208.53816 0,0 -2.4534,-94.0466 8.178,-122.66951 0,0 -51.5212,54.79241 -53.1568,76.05511 -1.6356,21.2627 37.6187,-170.10173 131.6653,-161.92376 z"
       style="opacity:1;fill:#0028d0;fill-opacity:1;stroke:none;stroke-width:1.20000005;stroke-linecap:round;stroke-linejoin:round;stroke-miterlimit:4;stroke-dasharray:none;stroke-opacity:1" />
    <path
       inkscape:connector-curvature="0"
       id="path2542"
       d="m 466.89718,-917.42518 c 0,0 -67.0593,75.23729 -107.1313,88.32204 0,0 76.055,-19.62712 107.1313,-88.32204 z"
       style="opacity:1;fill:#0028d0;fill-opacity:1;stroke:none;stroke-width:1.20000005;stroke-linecap:round;stroke-linejoin:round;stroke-miterlimit:4;stroke-dasharray:none;stroke-opacity:1" />
    <path
       inkscape:connector-curvature="0"
       id="path2544"
       d="m 309.87738,-1188.7977 c 0,0 -141.0977,3.4697 -178.107,33.5397 0,0 124.9062,-72.862 178.107,-33.5397 z"
       style="opacity:1;fill:#0028d0;fill-opacity:1;stroke:none;stroke-width:1.20000005;stroke-linecap:round;stroke-linejoin:round;stroke-miterlimit:4;stroke-dasharray:none;stroke-opacity:1" />
    <path
       inkscape:connector-curvature="0"
       id="path2546"
       d="m 17.272976,-1195.7369 c 0,0 -167.698096,86.7404 -193.141996,145.7239 l 25.4439,-46.2615 c 0,0 -46.2616,13.8784 -45.1051,25.4438 1.1566,11.5654 -3.4696,-55.5138 185.046296,-131.8454 0,0 -52.0443,38.1658 -53.2008,47.4181 -1.1565,9.2523 63.60960009,-50.8877 80.9577,-40.4789 z"
       style="opacity:1;fill:#000060;fill-opacity:1;stroke:none;stroke-width:1.20000005;stroke-linecap:round;stroke-linejoin:round;stroke-miterlimit:4;stroke-dasharray:none;stroke-opacity:1" />
    <path
       inkscape:connector-curvature="0"
       id="path2548"
       d="m 262.45928,-886.94095 c -6.9392,1.15654 -115.6539,74.0185 -135.3151,124.90623 0,0 37.0093,-102.93199 135.3151,-124.90623 z"
       style="opacity:1;fill:#000060;fill-opacity:1;stroke:none;stroke-width:1.20000005;stroke-linecap:round;stroke-linejoin:round;stroke-miterlimit:4;stroke-dasharray:none;stroke-opacity:1" />
    <path
       inkscape:connector-curvature="0"
       id="path2550"
       d="m 144.49228,-618.62384 c 0,0 -24.2873,62.4531 -56.670404,86.7404 0,0 50.887704,-8.0958 56.670404,-86.7404 z"
       style="opacity:1;fill:#00008c;fill-opacity:1;stroke:none;stroke-width:1.20000005;stroke-linecap:round;stroke-linejoin:round;stroke-miterlimit:4;stroke-dasharray:none;stroke-opacity:1" />
    <path
       inkscape:connector-curvature="0"
       id="path2552"
       d="m 152.58808,-565.42304 c 0,0 -49.7312,87.897 -108.714704,86.7404 0,0 86.740504,20.8178 108.714704,-86.7404 z"
       style="opacity:1;fill:#00008c;fill-opacity:1;stroke:none;stroke-width:1.20000005;stroke-linecap:round;stroke-linejoin:round;stroke-miterlimit:4;stroke-dasharray:none;stroke-opacity:1" />
    <path
       inkscape:connector-curvature="0"
       id="path2554"
       d="m 87.821876,-1159.8842 c 0,0 -167.6982,107.5582 -188.515896,151.5066 -20.8177,43.94853 -1.1565,-61.2965 188.515896,-151.5066 z"
       style="opacity:1;fill:#00008c;fill-opacity:1;stroke:none;stroke-width:1.20000005;stroke-linecap:round;stroke-linejoin:round;stroke-miterlimit:4;stroke-dasharray:none;stroke-opacity:1" />
    <path
       inkscape:connector-curvature="0"
       id="path2556"
       d="m 35.777676,-1255.8769 c -5.7827,2.313 -200.081296,56.6704 -239.403596,106.4016 0,0 49.7311,-70.5489 239.403596,-106.4016 z"
       style="opacity:1;fill:#00008c;fill-opacity:1;stroke:none;stroke-width:1.20000005;stroke-linecap:round;stroke-linejoin:round;stroke-miterlimit:4;stroke-dasharray:none;stroke-opacity:1" />
  </g>
</svg>
