<?xml version="1.0" encoding="UTF-8" standalone="no"?>
<!-- Created with Inkscape (http://www.inkscape.org/) -->

<svg
   xmlns:dc="http://purl.org/dc/elements/1.1/"
   xmlns:cc="http://creativecommons.org/ns#"
   xmlns:rdf="http://www.w3.org/1999/02/22-rdf-syntax-ns#"
   xmlns:svg="http://www.w3.org/2000/svg"
   xmlns="http://www.w3.org/2000/svg"
   xmlns:xlink="http://www.w3.org/1999/xlink"
   xmlns:sodipodi="http://sodipodi.sourceforge.net/DTD/sodipodi-0.dtd"
   xmlns:inkscape="http://www.inkscape.org/namespaces/inkscape"
   version="1.1"
   id="svg917"
   width="1920"
   height="450"
   viewBox="0 0 1920 450"
   sodipodi:docname="breadcrumb1.svg"
   inkscape:version="0.92.3 (2405546, 2018-03-11)">
  <metadata
     id="metadata923">
    <rdf:RDF>
      <cc:Work
         rdf:about="">
        <dc:format>image/svg+xml</dc:format>
        <dc:type
           rdf:resource="http://purl.org/dc/dcmitype/StillImage" />
        <dc:title></dc:title>
      </cc:Work>
    </rdf:RDF>
  </metadata>
  <defs
     id="defs921">
    <linearGradient
       inkscape:collect="always"
       id="linearGradient1690">
      <stop
         style="stop-color:#000004;stop-opacity:1;"
         offset="0"
         id="stop1686" />
      <stop
         style="stop-color:#000004;stop-opacity:0;"
         offset="1"
         id="stop1688" />
    </linearGradient>
    <linearGradient
       inkscape:collect="always"
       id="linearGradient1661">
      <stop
         style="stop-color:#000004;stop-opacity:1;"
         offset="0"
         id="stop1657" />
      <stop
         style="stop-color:#000004;stop-opacity:0;"
         offset="1"
         id="stop1659" />
    </linearGradient>
    <linearGradient
       inkscape:collect="always"
       id="linearGradient1646">
      <stop
         style="stop-color:#ffffff;stop-opacity:1;"
         offset="0"
         id="stop1642" />
      <stop
         style="stop-color:#ffffff;stop-opacity:0;"
         offset="1"
         id="stop1644" />
    </linearGradient>
    <linearGradient
       inkscape:collect="always"
       id="linearGradient1636">
      <stop
         style="stop-color:#ffffff;stop-opacity:1;"
         offset="0"
         id="stop1632" />
      <stop
         style="stop-color:#ffffff;stop-opacity:0;"
         offset="1"
         id="stop1634" />
    </linearGradient>
    <linearGradient
       inkscape:collect="always"
       id="linearGradient1626">
      <stop
         style="stop-color:#e8fcfc;stop-opacity:1;"
         offset="0"
         id="stop1622" />
      <stop
         style="stop-color:#e8fcfc;stop-opacity:0;"
         offset="1"
         id="stop1624" />
    </linearGradient>
    <linearGradient
       inkscape:collect="always"
       id="linearGradient1616">
      <stop
         style="stop-color:#ffffff;stop-opacity:1;"
         offset="0"
         id="stop1612" />
      <stop
         style="stop-color:#ffffff;stop-opacity:0;"
         offset="1"
         id="stop1614" />
    </linearGradient>
    <linearGradient
       inkscape:collect="always"
       id="linearGradient1437">
      <stop
         style="stop-color:#ffffff;stop-opacity:1;"
         offset="0"
         id="stop1433" />
      <stop
         style="stop-color:#ffffff;stop-opacity:0;"
         offset="1"
         id="stop1435" />
    </linearGradient>
    <linearGradient
       inkscape:collect="always"
       id="linearGradient1368">
      <stop
         style="stop-color:#ffffff;stop-opacity:1;"
         offset="0"
         id="stop1364" />
      <stop
         style="stop-color:#ffffff;stop-opacity:0;"
         offset="1"
         id="stop1366" />
    </linearGradient>
    <linearGradient
       inkscape:collect="always"
       id="linearGradient1290">
      <stop
         style="stop-color:#ffffff;stop-opacity:1;"
         offset="0"
         id="stop1286" />
      <stop
         style="stop-color:#ffffff;stop-opacity:0;"
         offset="1"
         id="stop1288" />
    </linearGradient>
    <linearGradient
       inkscape:collect="always"
       id="linearGradient1257">
      <stop
         style="stop-color:#ffffff;stop-opacity:1;"
         offset="0"
         id="stop1253" />
      <stop
         style="stop-color:#ffffff;stop-opacity:0;"
         offset="1"
         id="stop1255" />
    </linearGradient>
    <linearGradient
       inkscape:collect="always"
       id="linearGradient1245">
      <stop
         style="stop-color:#ffffff;stop-opacity:1;"
         offset="0"
         id="stop1241" />
      <stop
         style="stop-color:#ffffff;stop-opacity:0;"
         offset="1"
         id="stop1243" />
    </linearGradient>
    <linearGradient
       inkscape:collect="always"
       id="linearGradient1235">
      <stop
         style="stop-color:#ffffff;stop-opacity:1;"
         offset="0"
         id="stop1231" />
      <stop
         style="stop-color:#ffffff;stop-opacity:0;"
         offset="1"
         id="stop1233" />
    </linearGradient>
    <linearGradient
       inkscape:collect="always"
       id="linearGradient1225">
      <stop
         style="stop-color:#ffffff;stop-opacity:1;"
         offset="0"
         id="stop1221" />
      <stop
         style="stop-color:#ffffff;stop-opacity:0;"
         offset="1"
         id="stop1223" />
    </linearGradient>
    <linearGradient
       inkscape:collect="always"
       id="linearGradient1215">
      <stop
         style="stop-color:#ffffff;stop-opacity:1;"
         offset="0"
         id="stop1211" />
      <stop
         style="stop-color:#ffffff;stop-opacity:0;"
         offset="1"
         id="stop1213" />
    </linearGradient>
    <linearGradient
       inkscape:collect="always"
       id="linearGradient1205">
      <stop
         style="stop-color:#ffffff;stop-opacity:1;"
         offset="0"
         id="stop1201" />
      <stop
         style="stop-color:#ffffff;stop-opacity:0;"
         offset="1"
         id="stop1203" />
    </linearGradient>
    <linearGradient
       inkscape:collect="always"
       id="linearGradient1194">
      <stop
         style="stop-color:#fcfcfc;stop-opacity:1;"
         offset="0"
         id="stop1190" />
      <stop
         style="stop-color:#fcfcfc;stop-opacity:0;"
         offset="1"
         id="stop1192" />
    </linearGradient>
    <linearGradient
       inkscape:collect="always"
       xlink:href="#linearGradient1194"
       id="linearGradient1196"
       x1="668.92316"
       y1="565.96552"
       x2="682.08185"
       y2="315.60065"
       gradientUnits="userSpaceOnUse"
       gradientTransform="translate(-2)" />
    <linearGradient
       inkscape:collect="always"
       xlink:href="#linearGradient1205"
       id="linearGradient1207"
       x1="749.5332"
       y1="517.88226"
       x2="755.19006"
       y2="288.77966"
       gradientUnits="userSpaceOnUse" />
    <linearGradient
       inkscape:collect="always"
       xlink:href="#linearGradient1215"
       id="linearGradient1217"
       x1="1474.1007"
       y1="339.00989"
       x2="1543.5344"
       y2="373.46091"
       gradientUnits="userSpaceOnUse" />
    <linearGradient
       inkscape:collect="always"
       xlink:href="#linearGradient1225"
       id="linearGradient1227"
       x1="1438"
       y1="273"
       x2="1552"
       y2="318"
       gradientUnits="userSpaceOnUse" />
    <linearGradient
       inkscape:collect="always"
       xlink:href="#linearGradient1235"
       id="linearGradient1237"
       x1="881.76215"
       y1="320.59946"
       x2="921.36017"
       y2="334.03448"
       gradientUnits="userSpaceOnUse" />
    <linearGradient
       inkscape:collect="always"
       xlink:href="#linearGradient1245"
       id="linearGradient1247"
       x1="885.29767"
       y1="285.24411"
       x2="926.4635"
       y2="296.83548"
       gradientUnits="userSpaceOnUse" />
    <radialGradient
       inkscape:collect="always"
       xlink:href="#linearGradient1257"
       id="radialGradient1259"
       cx="658.87872"
       cy="243.22182"
       fx="658.87872"
       fy="243.22182"
       r="219.06245"
       gradientUnits="userSpaceOnUse"
       gradientTransform="matrix(1.3938011,0,0,1.3938011,-259.46714,-97.195226)" />
    <radialGradient
       inkscape:collect="always"
       xlink:href="#linearGradient1290"
       id="radialGradient1292"
       cx="1040.5518"
       cy="149.52382"
       fx="1040.5518"
       fy="149.52382"
       r="4.4584079"
       gradientUnits="userSpaceOnUse"
       gradientTransform="matrix(1.4460646,0,0,1.4460646,-464.1091,-67.095029)" />
    <linearGradient
       inkscape:collect="always"
       xlink:href="#linearGradient1368"
       id="linearGradient1370"
       x1="859.7113"
       y1="-585.7124"
       x2="860.06476"
       y2="-695.88464"
       gradientUnits="userSpaceOnUse" />
    <linearGradient
       gradientTransform="matrix(1.6544904,1.8481985e-8,-1.8481986e-8,1.6544904,-413.57819,166.63841)"
       inkscape:collect="always"
       xlink:href="#linearGradient1368"
       id="linearGradient1370-2"
       x1="859.7113"
       y1="-585.7124"
       x2="860.06476"
       y2="-695.88464"
       gradientUnits="userSpaceOnUse" />
    <radialGradient
       inkscape:collect="always"
       xlink:href="#linearGradient1368"
       id="radialGradient1292-6"
       cx="1040.5518"
       cy="149.52382"
       fx="1040.5518"
       fy="149.52382"
       r="4.4584079"
       gradientUnits="userSpaceOnUse"
       gradientTransform="matrix(2.3925,0,0,2.3925,-1183.2712,-273.03301)" />
    <linearGradient
       gradientTransform="matrix(0.74930239,0,0,0.74930239,457.79621,-201.07563)"
       inkscape:collect="always"
       xlink:href="#linearGradient1368"
       id="linearGradient1370-4"
       x1="859.7113"
       y1="-585.7124"
       x2="860.06476"
       y2="-695.88464"
       gradientUnits="userSpaceOnUse" />
    <radialGradient
       inkscape:collect="always"
       xlink:href="#linearGradient1368"
       id="radialGradient1292-2"
       cx="1040.5518"
       cy="149.52382"
       fx="1040.5518"
       fy="149.52382"
       r="4.4584079"
       gradientUnits="userSpaceOnUse"
       gradientTransform="matrix(1.0835397,0,0,1.0835397,123.45187,116.96788)" />
    <linearGradient
       inkscape:collect="always"
       xlink:href="#linearGradient1437"
       id="linearGradient1439"
       x1="732"
       y1="678"
       x2="784"
       y2="162"
       gradientUnits="userSpaceOnUse" />
    <linearGradient
       gradientTransform="matrix(1.1682978,1.3537681e-8,-1.3537681e-8,1.1682978,183.14877,-48.202366)"
       inkscape:collect="always"
       xlink:href="#linearGradient1437"
       id="linearGradient1370-2-3"
       x1="859.7113"
       y1="-585.7124"
       x2="860.06476"
       y2="-695.88464"
       gradientUnits="userSpaceOnUse" />
    <radialGradient
       inkscape:collect="always"
       xlink:href="#linearGradient1437"
       id="radialGradient1292-6-0"
       cx="1040.5518"
       cy="149.52382"
       fx="1040.5518"
       fy="149.52382"
       r="4.4584079"
       gradientUnits="userSpaceOnUse"
       gradientTransform="matrix(1.689434,0,0,1.689434,-375.79482,12.003384)" />
    <linearGradient
       gradientTransform="matrix(1.1308982,1.626853e-8,-1.6268529e-8,1.1308982,0.15313,128.06682)"
       inkscape:collect="always"
       xlink:href="#linearGradient1437"
       id="linearGradient1370-2-39"
       x1="859.7113"
       y1="-585.7124"
       x2="860.06476"
       y2="-695.88464"
       gradientUnits="userSpaceOnUse" />
    <radialGradient
       inkscape:collect="always"
       xlink:href="#linearGradient1437"
       id="radialGradient1292-6-6"
       cx="1040.5518"
       cy="149.52382"
       fx="1040.5518"
       fy="149.52382"
       r="4.4584079"
       gradientUnits="userSpaceOnUse"
       gradientTransform="matrix(1.6353519,0,0,1.6353519,-612.50294,17.50264)" />
    <radialGradient
       inkscape:collect="always"
       xlink:href="#linearGradient1616"
       id="radialGradient1618"
       cx="705.29654"
       cy="387.59785"
       fx="705.29654"
       fy="387.59785"
       r="3.6690412"
       gradientTransform="matrix(1.4280168,0,0,2.0311867,-301.6342,-399.95086)"
       gradientUnits="userSpaceOnUse" />
    <linearGradient
       inkscape:collect="always"
       xlink:href="#linearGradient1626"
       id="linearGradient1628"
       x1="732.29749"
       y1="373.2789"
       x2="744.3183"
       y2="397.14377"
       gradientUnits="userSpaceOnUse" />
    <linearGradient
       inkscape:collect="always"
       xlink:href="#linearGradient1636"
       id="linearGradient1638"
       x1="676.76318"
       y1="351.83054"
       x2="686.6416"
       y2="366.08054"
       gradientUnits="userSpaceOnUse" />
    <linearGradient
       inkscape:collect="always"
       xlink:href="#linearGradient1646"
       id="linearGradient1648"
       x1="715.70581"
       y1="358.00839"
       x2="716"
       y2="392.75"
       gradientUnits="userSpaceOnUse" />
    <linearGradient
       inkscape:collect="always"
       xlink:href="#linearGradient1661"
       id="linearGradient1663"
       x1="1475.1124"
       y1="356.73236"
       x2="1683.0201"
       y2="464.72479"
       gradientUnits="userSpaceOnUse" />
    <linearGradient
       inkscape:collect="always"
       xlink:href="#linearGradient1690"
       id="linearGradient1692"
       x1="889.40979"
       y1="338.64404"
       x2="973.33246"
       y2="370.4505"
       gradientUnits="userSpaceOnUse" />
  </defs>
  <sodipodi:namedview
     pagecolor="#ffffff"
     bordercolor="#666666"
     borderopacity="1"
     objecttolerance="10"
     gridtolerance="10"
     guidetolerance="10"
     inkscape:pageopacity="0"
     inkscape:pageshadow="2"
     inkscape:window-width="1920"
     inkscape:window-height="1055"
     id="namedview919"
     showgrid="false"
     inkscape:zoom="0.35355339"
     inkscape:cx="1012.6232"
     inkscape:cy="475.64875"
     inkscape:window-x="0"
     inkscape:window-y="0"
     inkscape:window-maximized="1"
     inkscape:current-layer="svg917" />
  <rect
     style="opacity:1;fill:#000040;fill-opacity:1;stroke:none;stroke-width:2;stroke-linecap:round;stroke-linejoin:round;stroke-miterlimit:4;stroke-dasharray:none;stroke-opacity:1"
     id="rect1002-4"
     width="1922.7108"
     height="455.14246"
     x="0"
     y="-5.1424561" />
  <rect
     y="-5.1424561"
     x="0"
     height="455.14246"
     width="1922.7108"
     id="rect1431"
     style="opacity:1;fill:url(#linearGradient1439);fill-opacity:1;stroke:none;stroke-width:2;stroke-linecap:round;stroke-linejoin:round;stroke-miterlimit:4;stroke-dasharray:none;stroke-opacity:1" />
  <rect
     style="opacity:1;fill:url(#radialGradient1292);fill-opacity:1;stroke:none;stroke-width:58.23752213;stroke-linecap:round;stroke-linejoin:round;stroke-miterlimit:4;stroke-dasharray:none;stroke-opacity:1"
     id="rect1263-0"
     width="12.894292"
     height="12.894292"
     x="1034.1489"
     y="142.67892"
     ry="6.4471459" />
  <circle
     r="305.32947"
     cy="241.8076"
     cx="658.87872"
     id="circle1251"
     style="opacity:1;fill:url(#radialGradient1259);fill-opacity:1;stroke:none;stroke-width:45.21414566;stroke-linecap:round;stroke-linejoin:round;stroke-miterlimit:4;stroke-dasharray:none;stroke-opacity:1" />
  <circle
     style="opacity:1;fill:#ccf0fc;fill-opacity:1;stroke:none;stroke-width:27.09921265;stroke-linecap:round;stroke-linejoin:round;stroke-miterlimit:4;stroke-dasharray:none;stroke-opacity:1"
     id="path1186"
     cx="661"
     cy="251"
     r="183" />
  <path
     style="opacity:1;fill:#0000a4;fill-opacity:1;stroke:none;stroke-width:36.13068771;stroke-linecap:round;stroke-linejoin:round;stroke-miterlimit:4;stroke-dasharray:none;stroke-opacity:1"
     d="m 915.19257,318.42873 c 0,0 -8.95628,3.77107 -12.13813,-0.82493 -3.18183,-4.59598 -1.0606,-8.01351 -1.0606,-8.01351 0,0 -9.19199,-3.41754 -7.07076,-8.4849 2.12123,-5.06738 7.30644,-5.06738 7.30644,-5.06738 0,0 -4.47814,-6.24584 -1.88553,-12.0203 2.5926,-5.77444 10.95967,-6.01013 10.95967,-6.01013 0,0 4.00676,-7.89568 9.42767,-5.65661 5.42092,2.23908 4.3603,7.89568 4.3603,7.89568 0,0 14.3772,-5.42092 16.02705,0 1.64984,5.42091 -4.1246,11.90244 -4.1246,11.90244 0,0 7.89568,1.532 8.4849,7.77783 0.58923,6.24583 -3.18184,10.0169 -3.18184,10.0169 0,0 -5.06738,9.19198 -9.78121,8.36706 -4.71385,-0.82491 -6.128,-4.36029 -6.128,-4.36029 0,0 -0.94276,6.71721 -3.88891,7.54214 -2.94615,0.82492 -7.30645,-3.064 -7.30645,-3.064 z"
     id="path1169"
     inkscape:connector-curvature="0" />
  <path
     style="opacity:1;fill:#0000a4;fill-opacity:1;stroke:none;stroke-width:27.09921265;stroke-linecap:round;stroke-linejoin:round;stroke-miterlimit:4;stroke-dasharray:none;stroke-opacity:1"
     d="m 1532.25,355.75 c -1.25,0 -23,6.75 -25.25,-11.25 0,0 -22.5,6 -24.5,-15.75 -2,-21.75 16,-23.5 16,-23.5 0,0 -17.5,-29.25 6,-33.75 23.5,-4.5 28.5,6.75 28.5,6.75 0,0 3,-20 18.5,-18 15.5,2 14.5,8.75 14.5,8.75 0,0 16.75,-4.5 21.25,9.5 4.5,14 -6.25,25.5 -9.75,23.5 0,0 15.25,8 14.5,21 -0.75,13 -9.5,14.5 -9.5,14.5 0,0 5.5,18.75 -5.75,21.75 -11.25,3 -44.5,-3.5 -44.5,-3.5 z"
     id="path1163"
     inkscape:connector-curvature="0" />
  <path
     style="opacity:1;fill:#0070e4;fill-opacity:1;stroke:none;stroke-width:27.09921265;stroke-linecap:round;stroke-linejoin:round;stroke-miterlimit:4;stroke-dasharray:none;stroke-opacity:1"
     d="m 1930,414 c 0,0 -586,-68 -1024,-82 C 468,318 128,224 -24,274 l 16,182 1934,-4 z"
     id="path1159"
     inkscape:connector-curvature="0" />
  <path
     inkscape:connector-curvature="0"
     id="path1198"
     d="m 1930,414 c 0,0 -586,-68 -1024,-82 C 468,318 128,224 -24,274 l 16,182 1934,-4 z"
     style="opacity:1;fill:url(#linearGradient1207);fill-opacity:1;stroke:none;stroke-width:27.09921265;stroke-linecap:round;stroke-linejoin:round;stroke-miterlimit:4;stroke-dasharray:none;stroke-opacity:1" />
  <path
     style="opacity:1;fill:#0000c8;fill-opacity:1;stroke:none;stroke-width:27.09921265;stroke-linecap:round;stroke-linejoin:round;stroke-miterlimit:4;stroke-dasharray:none;stroke-opacity:1"
     d="m 1930,414 c 0,0 -572,-52 -884,-38 C 734,390 122,280 -18,312 l 10,144 1934,-4 z"
     id="path1142"
     inkscape:connector-curvature="0" />
  <path
     inkscape:connector-curvature="0"
     id="path1219"
     d="m 1532.25,355.75 c -1.25,0 -23,6.75 -25.25,-11.25 0,0 -22.5,6 -24.5,-15.75 -2,-21.75 16,-23.5 16,-23.5 0,0 -17.5,-29.25 6,-33.75 23.5,-4.5 28.5,6.75 28.5,6.75 0,0 3,-20 18.5,-18 15.5,2 14.5,8.75 14.5,8.75 0,0 16.75,-4.5 21.25,9.5 4.5,14 -6.25,25.5 -9.75,23.5 0,0 15.25,8 14.5,21 -0.75,13 -9.5,14.5 -9.5,14.5 0,0 5.5,18.75 -5.75,21.75 -11.25,3 -44.5,-3.5 -44.5,-3.5 z"
     style="opacity:1;fill:url(#linearGradient1227);fill-opacity:1;stroke:none;stroke-width:27.09921265;stroke-linecap:round;stroke-linejoin:round;stroke-miterlimit:4;stroke-dasharray:none;stroke-opacity:1" />
  <path
     inkscape:connector-curvature="0"
     id="path1188"
     d="m 1928,414 c 0,0 -572,-52 -884,-38 C 732,390 120,280 -20,312 l 10,144 1934,-4 z"
     style="opacity:1;fill:url(#linearGradient1196);fill-opacity:1;stroke:none;stroke-width:27.09921265;stroke-linecap:round;stroke-linejoin:round;stroke-miterlimit:4;stroke-dasharray:none;stroke-opacity:1" />
  <path
     style="opacity:1;fill:#000044;fill-opacity:1;stroke:none;stroke-width:27.09921265;stroke-linecap:round;stroke-linejoin:round;stroke-miterlimit:4;stroke-dasharray:none;stroke-opacity:1"
     d="m 1501,412 c 0,0 39,-48 23,-93 0,0 16,7 17,18 1,11 -1,-20 11,-19 0,0 -11,87 6,100 0,0 -22,-15 -28,-7 0,0 0,-13 -29,1 z"
     id="path1161"
     inkscape:connector-curvature="0" />
  <path
     inkscape:connector-curvature="0"
     id="path1239"
     d="m 915.19257,318.42873 c 0,0 -8.95628,3.77107 -12.13813,-0.82493 -3.18183,-4.59598 -1.0606,-8.01351 -1.0606,-8.01351 0,0 -9.19199,-3.41754 -7.07076,-8.4849 2.12123,-5.06738 7.30644,-5.06738 7.30644,-5.06738 0,0 -4.47814,-6.24584 -1.88553,-12.0203 2.5926,-5.77444 10.95967,-6.01013 10.95967,-6.01013 0,0 4.00676,-7.89568 9.42767,-5.65661 5.42092,2.23908 4.3603,7.89568 4.3603,7.89568 0,0 14.3772,-5.42092 16.02705,0 1.64984,5.42091 -4.1246,11.90244 -4.1246,11.90244 0,0 7.89568,1.532 8.4849,7.77783 0.58923,6.24583 -3.18184,10.0169 -3.18184,10.0169 0,0 -5.06738,9.19198 -9.78121,8.36706 -4.71385,-0.82491 -6.128,-4.36029 -6.128,-4.36029 0,0 -0.94276,6.71721 -3.88891,7.54214 -2.94615,0.82492 -7.30645,-3.064 -7.30645,-3.064 z"
     style="opacity:1;fill:url(#linearGradient1247);fill-opacity:1;stroke:none;stroke-width:36.13068771;stroke-linecap:round;stroke-linejoin:round;stroke-miterlimit:4;stroke-dasharray:none;stroke-opacity:1" />
  <path
     style="opacity:1;fill:#000044;fill-opacity:1;stroke:none;stroke-width:36.13068771;stroke-linecap:round;stroke-linejoin:round;stroke-miterlimit:4;stroke-dasharray:none;stroke-opacity:1"
     d="m 898.46474,343.50009 c 0,0 20.66575,-27.99877 18.66584,-45.33133 0,0 5.3331,7.33301 4.66646,10.66619 0,0 1.33328,-9.99956 4.66646,-11.99947 0,0 -9.99956,38.66496 -7.33301,47.33125 0,0 -8.66628,-4.66647 -10.66619,1.33327 0,0 -5.3331,-5.99974 -9.99956,-1.99991 z"
     id="path1167"
     inkscape:connector-curvature="0" />
  <path
     inkscape:connector-curvature="0"
     id="path1209"
     d="m 1501,412 c 0,0 39,-48 23,-93 0,0 16,7 17,18 1,11 -1,-20 11,-19 0,0 -11,87 6,100 0,0 -22,-15 -28,-7 0,0 0,-13 -29,1 z"
     style="opacity:1;fill:url(#linearGradient1217);fill-opacity:1;stroke:none;stroke-width:27.09921265;stroke-linecap:round;stroke-linejoin:round;stroke-miterlimit:4;stroke-dasharray:none;stroke-opacity:1" />
  <path
     style="opacity:1;fill:url(#linearGradient1663);fill-opacity:1;stroke:none;stroke-width:15.20441246;stroke-linecap:round;stroke-linejoin:round;stroke-miterlimit:4;stroke-dasharray:none;stroke-opacity:1"
     d="m 1668.5334,451.43103 c -13.549,-0.17292 -30.5133,-5.70625 -30.5133,-5.70625 0,0 4.1697,3.54143 -22.9982,2.12486 -27.1679,-1.41658 -33.509,-10.62429 -33.509,-10.62429 0,0 -19.4264,-0.55089 -35.1544,-7.39765 -15.7281,-6.84676 11.6624,-4.958 11.6624,-4.958 -8.6298,-3.93665 1.8812,-4.11187 9.5268,-3.85253 -30.3579,-9.62265 -70.5448,-17.39604 -70.5448,-17.39604 40.4111,4.40711 29.8151,0.31479 29.8151,0.31479 12.5206,2.51835 22.2944,-2.20355 22.2944,-2.20355 -3.4199,2.18539 18.339,11.00334 39.3666,18.75666 8.9564,-0.42595 20.0555,-0.75999 27.2695,-0.26254 13.6952,0.94439 23.478,6.84677 23.478,6.84677 0,0 9.9726,0.47219 21.3187,4.5645 11.3461,4.09232 2.6167,6.61067 2.6167,6.61067 1.8698,-0.62959 21.9933,2.99054 28.9044,7.39765 6.9112,4.40711 -13.5067,2.99054 -13.5067,2.99054 0,0 6.5018,2.12486 -7.368,2.75445 -0.867,0.0393 -1.755,0.0515 -2.6583,0.0399 z"
     id="path1650"
     inkscape:connector-curvature="0" />
  <path
     inkscape:connector-curvature="0"
     id="path1229"
     d="m 898.46474,343.50009 c 0,0 20.66575,-27.99877 18.66584,-45.33133 0,0 5.3331,7.33301 4.66646,10.66619 0,0 1.33328,-9.99956 4.66646,-11.99947 0,0 -9.99956,38.66496 -7.33301,47.33125 0,0 -8.66628,-4.66647 -10.66619,1.33327 0,0 -5.3331,-5.99974 -9.99956,-1.99991 z"
     style="opacity:1;fill:url(#linearGradient1237);fill-opacity:1;stroke:none;stroke-width:36.13068771;stroke-linecap:round;stroke-linejoin:round;stroke-miterlimit:4;stroke-dasharray:none;stroke-opacity:1" />
  <rect
     style="opacity:1;fill:#ffffff;fill-opacity:1;stroke:none;stroke-width:27.09921265;stroke-linecap:round;stroke-linejoin:round;stroke-miterlimit:4;stroke-dasharray:none;stroke-opacity:1"
     id="rect1263"
     width="6"
     height="6"
     x="1037.5"
     y="146.25"
     ry="3" />
  <rect
     style="opacity:1;fill:url(#linearGradient1370);fill-opacity:1;stroke:none;stroke-width:106.47975159;stroke-linecap:round;stroke-linejoin:round;stroke-miterlimit:4;stroke-dasharray:none;stroke-opacity:1"
     id="rect1263-5-6-4"
     width="6"
     height="92.634331"
     x="857.09717"
     y="-696.59973"
     transform="rotate(43.25314)" />
  <rect
     style="opacity:1;fill:url(#radialGradient1292-6);fill-opacity:1;stroke:none;stroke-width:96.35342407;stroke-linecap:round;stroke-linejoin:round;stroke-miterlimit:4;stroke-dasharray:none;stroke-opacity:1"
     id="rect1263-0-4"
     width="21.333483"
     height="21.333483"
     x="1295.5823"
     y="74.035995"
     ry="10.666741" />
  <rect
     style="opacity:1;fill:#ffffff;fill-opacity:1;stroke:none;stroke-width:44.83538818;stroke-linecap:round;stroke-linejoin:round;stroke-miterlimit:4;stroke-dasharray:none;stroke-opacity:1"
     id="rect1263-7"
     width="9.9269419"
     height="9.9269419"
     x="1301.1266"
     y="79.944305"
     ry="4.9634709" />
  <rect
     style="opacity:1;fill:url(#linearGradient1370-2);fill-opacity:1;stroke:none;stroke-width:176.16972351;stroke-linecap:round;stroke-linejoin:round;stroke-miterlimit:4;stroke-dasharray:none;stroke-opacity:1"
     id="rect1263-5-6-4-2"
     width="9.9269419"
     height="153.2626"
     x="1004.4808"
     y="-985.87921"
     transform="rotate(43.25314)" />
  <rect
     style="opacity:1;fill:url(#radialGradient1292-2);fill-opacity:1;stroke:none;stroke-width:43.63751602;stroke-linecap:round;stroke-linejoin:round;stroke-miterlimit:4;stroke-dasharray:none;stroke-opacity:1"
     id="rect1263-0-0"
     width="9.6617241"
     height="9.6617241"
     x="1246.1002"
     y="274.15201"
     ry="4.830862" />
  <rect
     style="opacity:1;fill:#ffffff;fill-opacity:1;stroke:none;stroke-width:20.30550575;stroke-linecap:round;stroke-linejoin:round;stroke-miterlimit:4;stroke-dasharray:none;stroke-opacity:1"
     id="rect1263-8"
     width="4.4958143"
     height="4.4958143"
     x="1248.6112"
     y="276.82785"
     ry="2.2479072" />
  <rect
     style="opacity:1;fill:url(#linearGradient1370-4);fill-opacity:1;stroke:none;stroke-width:79.78553009;stroke-linecap:round;stroke-linejoin:round;stroke-miterlimit:4;stroke-dasharray:none;stroke-opacity:1"
     id="rect1263-5-6-4-1"
     width="4.4958143"
     height="69.411125"
     x="1100.0211"
     y="-723.03949"
     transform="rotate(43.25314)" />
  <rect
     style="opacity:1;fill:url(#radialGradient1292-6-0);fill-opacity:1;stroke:none;stroke-width:68.03877258;stroke-linecap:round;stroke-linejoin:round;stroke-miterlimit:4;stroke-dasharray:none;stroke-opacity:1"
     id="rect1263-0-4-3"
     width="15.064373"
     height="15.064373"
     x="1374.6167"
     y="257.08182"
     ry="7.5321865" />
  <rect
     style="opacity:1;fill:#ffffff;fill-opacity:1;stroke:none;stroke-width:31.65995026;stroke-linecap:round;stroke-linejoin:round;stroke-miterlimit:4;stroke-dasharray:none;stroke-opacity:1"
     id="rect1263-7-4"
     width="7.0097861"
     height="7.0097861"
     x="1378.5317"
     y="261.25391"
     ry="3.5048931" />
  <rect
     style="opacity:1;fill:url(#linearGradient1370-2-3);fill-opacity:1;stroke:none;stroke-width:124.40005493;stroke-linecap:round;stroke-linejoin:round;stroke-miterlimit:4;stroke-dasharray:none;stroke-opacity:1"
     id="rect1263-5-6-4-2-0"
     width="7.0097861"
     height="108.22448"
     x="1184.4935"
     y="-862.03833"
     transform="rotate(43.25314)" />
  <rect
     style="opacity:1;fill:url(#radialGradient1292-6-6);fill-opacity:1;stroke:none;stroke-width:65.86071014;stroke-linecap:round;stroke-linejoin:round;stroke-miterlimit:4;stroke-dasharray:none;stroke-opacity:1"
     id="rect1263-0-4-9"
     width="14.582132"
     height="14.582132"
     x="1081.8745"
     y="254.73563"
     ry="7.2910662" />
  <rect
     style="opacity:1;fill:#ffffff;fill-opacity:1;stroke:none;stroke-width:30.64645195;stroke-linecap:round;stroke-linejoin:round;stroke-miterlimit:4;stroke-dasharray:none;stroke-opacity:1"
     id="rect1263-7-3"
     width="6.7853889"
     height="6.7853889"
     x="1085.6642"
     y="258.77417"
     ry="3.3926945" />
  <rect
     style="opacity:1;fill:url(#linearGradient1370-2-39);fill-opacity:1;stroke:none;stroke-width:120.41776276;stroke-linecap:round;stroke-linejoin:round;stroke-miterlimit:4;stroke-dasharray:none;stroke-opacity:1"
     id="rect1263-5-6-4-2-3"
     width="6.7853889"
     height="104.75999"
     x="969.44275"
     y="-659.71655"
     transform="rotate(43.25314)" />
  <rect
     style="opacity:1;fill:#00008c;fill-opacity:1;stroke:none;stroke-width:27.09921265;stroke-linecap:round;stroke-linejoin:round;stroke-miterlimit:4;stroke-dasharray:none;stroke-opacity:1"
     id="rect1503"
     width="32.75"
     height="20"
     x="699"
     y="378.5" />
  <rect
     y="378.5"
     x="699"
     height="20"
     width="32.75"
     id="rect1640"
     style="opacity:1;fill:url(#linearGradient1648);fill-opacity:1;stroke:none;stroke-width:27.09921265;stroke-linecap:round;stroke-linejoin:round;stroke-miterlimit:4;stroke-dasharray:none;stroke-opacity:1" />
  <path
     sodipodi:type="star"
     style="opacity:1;fill:#000074;fill-opacity:1;stroke:none;stroke-width:27.09921265;stroke-linecap:round;stroke-linejoin:round;stroke-miterlimit:4;stroke-dasharray:none;stroke-opacity:1"
     id="path1505"
     sodipodi:sides="3"
     sodipodi:cx="686.75"
     sodipodi:cy="366"
     sodipodi:r1="13.661076"
     sodipodi:r2="6.8305383"
     sodipodi:arg1="0.52359878"
     sodipodi:arg2="1.5707963"
     inkscape:flatsided="true"
     inkscape:rounded="0"
     inkscape:randomized="0"
     d="m 698.58084,372.83054 -23.66168,0 11.83084,-20.49162 z"
     inkscape:transform-center-y="-3.415269"
     transform="matrix(1.8980766,0,0,1,-587.79829,5.6694623)"
     inkscape:transform-center-x="4.077232e-05" />
  <rect
     style="opacity:1;fill:url(#radialGradient1618);fill-opacity:1;stroke:none;stroke-width:52.28272629;stroke-linecap:round;stroke-linejoin:round;stroke-miterlimit:4;stroke-dasharray:none;stroke-opacity:1"
     id="rect1507-0"
     width="10.478905"
     height="14.905014"
     x="700.3017"
     y="379.88019" />
  <rect
     style="opacity:1;fill:#a4e8fc;fill-opacity:1;stroke:none;stroke-width:27.09921265;stroke-linecap:round;stroke-linejoin:round;stroke-miterlimit:4;stroke-dasharray:none;stroke-opacity:1"
     id="rect1507"
     width="5.125"
     height="8.1875"
     x="703.25"
     y="383.4375" />
  <path
     style="opacity:1;fill:url(#linearGradient1628);fill-opacity:1;stroke:none;stroke-width:27.09921265;stroke-linecap:round;stroke-linejoin:round;stroke-miterlimit:4;stroke-dasharray:none;stroke-opacity:1"
     d="M 738.16165,378.5 749.70997,398.73476 731.75,398.5 v -20 z"
     id="path1620"
     inkscape:connector-curvature="0" />
  <path
     inkscape:transform-center-x="4.077232e-05"
     transform="matrix(1.8980766,0,0,1,-587.79829,5.6694623)"
     inkscape:transform-center-y="-3.415269"
     d="m 698.58084,372.83054 -23.66168,0 11.83084,-20.49162 z"
     inkscape:randomized="0"
     inkscape:rounded="0"
     inkscape:flatsided="true"
     sodipodi:arg2="1.5707963"
     sodipodi:arg1="0.52359878"
     sodipodi:r2="6.8305383"
     sodipodi:r1="13.661076"
     sodipodi:cy="366"
     sodipodi:cx="686.75"
     sodipodi:sides="3"
     id="path1630"
     style="opacity:1;fill:url(#linearGradient1638);fill-opacity:1;stroke:none;stroke-width:27.09921265;stroke-linecap:round;stroke-linejoin:round;stroke-miterlimit:4;stroke-dasharray:none;stroke-opacity:1"
     sodipodi:type="star" />
  <path
     style="opacity:1;fill:url(#linearGradient1692);fill-opacity:1;stroke:none;stroke-width:23.63622284;stroke-linecap:round;stroke-linejoin:round;stroke-miterlimit:4;stroke-dasharray:none;stroke-opacity:1"
     d="m 962.50888,375.07184 c -4.40555,-0.005 -11.13524,-2.59201 -11.13524,-2.59201 0,0 -8.50892,-0.10071 -14.59903,-2.57194 -6.09013,-2.47124 -5.39337,-5.14389 -5.39337,-5.14389 0,0 -5.18601,-4.2e-4 -10.37649,-2.16906 -5.19047,-2.16862 1.93142,-3.63097 1.93142,-3.63097 0,0 -4.19133,-1.46264 -3.79324,-3.42954 0.25708,-1.27015 5.00984,-1.04628 8.36297,-0.72886 -13.30417,-5.46423 -28.63803,-10.35381 -28.63803,-10.35381 7.08911,1.71177 8.78863,-0.85592 8.78863,-0.85592 5.63388,2.56765 11.47399,0.57089 11.47399,0.57089 1.12071,1.60948 8.05046,5.63669 15.53414,9.6801 0.48378,-0.034 1.00303,-0.0343 1.56637,0.0234 3.44579,0.35303 8.45812,3.22725 8.45812,3.22725 0,0 -0.72768,-1.51261 3.48653,-1.86564 4.21419,-0.35303 14.84917,3.58083 14.84917,3.58083 0,0 6.05419,1.61332 9.24799,4.28629 3.19381,2.67297 -3.77255,3.32923 -3.77255,3.32923 0,0 9.70057,2.7738 11.33411,5.09374 1.6336,2.31994 -16.02733,0 -16.02733,0 0,0 4.48504,2.42031 0.42029,3.37854 -0.50808,0.11978 -1.08909,0.17204 -1.71843,0.17135 z"
     id="path1665"
     inkscape:connector-curvature="0" />
</svg>
