<?xml version="1.0" encoding="UTF-8" standalone="no"?>
<!-- Created with Inkscape (http://www.inkscape.org/) -->

<svg
   xmlns:dc="http://purl.org/dc/elements/1.1/"
   xmlns:cc="http://creativecommons.org/ns#"
   xmlns:rdf="http://www.w3.org/1999/02/22-rdf-syntax-ns#"
   xmlns:svg="http://www.w3.org/2000/svg"
   xmlns="http://www.w3.org/2000/svg"
   xmlns:sodipodi="http://sodipodi.sourceforge.net/DTD/sodipodi-0.dtd"
   xmlns:inkscape="http://www.inkscape.org/namespaces/inkscape"
   width="9.5629997mm"
   height="12.7mm"
   viewBox="0 0 9.5629999 12.7"
   version="1.1"
   id="svg8"
   inkscape:version="0.92.3 (2405546, 2018-03-11)"
   sodipodi:docname="db.svg">
  <defs
     id="defs2" />
  <sodipodi:namedview
     id="base"
     pagecolor="#ffffff"
     bordercolor="#666666"
     borderopacity="1.0"
     inkscape:pageopacity="0.0"
     inkscape:pageshadow="2"
     inkscape:zoom="9.04"
     inkscape:cx="8.1543144"
     inkscape:cy="45.196903"
     inkscape:document-units="mm"
     inkscape:current-layer="svg8"
     showgrid="false"
     units="mm"
     inkscape:window-width="1920"
     inkscape:window-height="1055"
     inkscape:window-x="0"
     inkscape:window-y="0"
     inkscape:window-maximized="1" />
  <metadata
     id="metadata5">
    <rdf:RDF>
      <cc:Work
         rdf:about="">
        <dc:format>image/svg+xml</dc:format>
        <dc:type
           rdf:resource="http://purl.org/dc/dcmitype/StillImage" />
        <dc:title></dc:title>
      </cc:Work>
    </rdf:RDF>
  </metadata>
  <path
     style="color:#000000;font-style:normal;font-variant:normal;font-weight:normal;font-stretch:normal;font-size:medium;line-height:normal;font-family:sans-serif;font-variant-ligatures:normal;font-variant-position:normal;font-variant-caps:normal;font-variant-numeric:normal;font-variant-alternates:normal;font-feature-settings:normal;text-indent:0;text-align:start;text-decoration:none;text-decoration-line:none;text-decoration-style:solid;text-decoration-color:#000000;letter-spacing:normal;word-spacing:normal;text-transform:none;writing-mode:lr-tb;direction:ltr;text-orientation:mixed;dominant-baseline:auto;baseline-shift:baseline;text-anchor:start;white-space:normal;shape-padding:0;clip-rule:nonzero;display:inline;overflow:visible;visibility:visible;opacity:1;isolation:auto;mix-blend-mode:normal;color-interpolation:sRGB;color-interpolation-filters:linearRGB;solid-color:#000000;solid-opacity:1;vector-effect:none;fill:#000000;fill-opacity:1;fill-rule:nonzero;stroke:none;stroke-width:0.40109387;stroke-linecap:round;stroke-linejoin:round;stroke-miterlimit:4;stroke-dasharray:none;stroke-dashoffset:0;stroke-opacity:1;color-rendering:auto;image-rendering:auto;shape-rendering:auto;text-rendering:auto;enable-background:accumulate"
     d="M 4.7826253,1.9073486e-7 C 3.4994479,1.9073486e-7 2.3371461,0.16477173 1.4795293,0.44176884 1.0507212,0.58026739 0.6974509,0.74571979 0.4378141,0.94398404 0.1781774,1.1422483 0,1.3910914 0,1.678382 0,1.753791 0.013363,1.8259759 0.036155,1.8958768 V 8.0134115 H 0 c 0,0.075409 0.013352,0.1476029 0.036155,0.2174948 v 2.6025927 a 0.200567,0.200567 0 0 0 0.1271073,0.187554 H 0 v 5.65e-4 c 0,0.287292 0.1781774,0.533874 0.4378141,0.732139 0.2596368,0.198264 0.6129071,0.363715 1.0417152,0.502215 C 2.3371461,12.532969 3.4994479,12.7 4.7826253,12.7 6.065803,12.7 7.2258449,12.532969 8.083461,12.255972 8.51227,12.117472 8.86554,11.952021 9.125177,11.753757 9.384814,11.555492 9.56299,11.30891 9.562991,11.021618 v -5.65e-4 H 9.401988 A 0.200567,0.200567 0 0 0 9.531355,10.833499 V 8.2213026 c 0.02076,-0.066827 0.03164,-0.1360682 0.03164,-0.2078911 H 9.531355 V 1.8862731 C 9.552105,1.8194371 9.562995,1.7502046 9.562995,1.678382 9.562994,1.3910914 9.384818,1.1422483 9.125181,0.94398404 8.86554,0.74571979 8.51227,0.58026739 8.083461,0.44176884 7.2258449,0.16477173 6.065803,1.9073486e-7 4.7826253,1.9073486e-7 Z m 0,0.39488015926514 c 1.2486022,0 2.3778433,0.16593748 3.1793787,0.42482096 0.400767,0.12944176 0.719903,0.28405919 0.924211,0.44007389 0.129121,0.0986 0.203203,0.1902194 0.243481,0.2756817 V 1.8207422 C 9.089416,1.9062042 9.015336,1.9983891 8.886215,2.0969888 8.681907,2.2530034 8.362771,2.407056 7.962004,2.5364977 7.1604686,2.7953813 6.0312275,2.9613186 4.7826253,2.9613186 3.5340231,2.9613186 2.4025221,2.7953813 1.6009875,2.5364977 1.20022,2.407056 0.8833445,2.2530034 0.6790356,2.0969888 0.5448433,1.9945167 0.4687342,1.8988109 0.4293403,1.8105736 V 1.5450605 C 0.4688067,1.4569475 0.5450721,1.3620723 0.6790356,1.2597752 0.8833445,1.1037605 1.20022,0.94914307 1.6009875,0.81970131 2.4025221,0.56081783 3.5340231,0.39488035 4.7826253,0.39488035 Z M 0.4293403,2.405436 c 0.00303,0.00235 0.00542,0.00501 0.00847,0.00734 0.2596368,0.1982642 0.6129071,0.3631517 1.0417152,0.5016503 0.8576168,0.2769972 2.0199186,0.4417687 3.303096,0.4417687 1.2831777,0 2.4432196,-0.1647715 3.3008355,-0.4417687 0.428809,-0.1384986 0.782079,-0.3033861 1.041716,-0.5016503 0.0016,-0.00125 0.0029,-0.0027 0.0045,-0.00395 V 5.0379706 H 9.030243 C 8.991173,5.0804526 8.945263,5.1239216 8.886188,5.1690324 8.681907,5.3250464 8.362771,5.4796639 7.962004,5.6091057 7.1604686,5.8679892 6.0312275,6.0316671 4.7826253,6.0316671 3.5340231,6.0316671 2.4025221,5.8679892 1.6009875,5.6091057 1.20022,5.4796639 0.8833445,5.3250464 0.6790356,5.1690319 0.6198707,5.1238521 0.5737676,5.0805124 0.5344157,5.0379701 H 0.4293403 Z m 0,3.0703483 c 0.00301,0.00234 0.00543,0.00502 0.00847,0.00734 0.2596368,0.1982644 0.6129071,0.3631519 1.0417152,0.5016503 0.8576168,0.2769972 2.0199186,0.4440285 3.303096,0.4440285 1.2831777,0 2.4432196,-0.1670313 3.3008355,-0.4440285 0.428809,-0.1384984 0.782079,-0.3033859 1.041716,-0.5016503 0.0016,-0.00124 0.0029,-0.00271 0.0045,-0.00395 v 2.676598 C 9.089413,8.2411713 9.015435,8.332761 8.886192,8.431454 8.681884,8.5874685 8.362748,8.742086 7.961981,8.8715277 7.1604458,9.1304112 6.0312047,9.2963487 4.7826025,9.2963487 3.5340003,9.2963487 2.4024993,9.1304112 1.6009647,8.8715277 1.20022,8.7420856 0.8833445,8.5874681 0.6790356,8.4314536 0.5449293,8.3290468 0.4688155,8.2342273 0.4293403,8.1461683 Z m 0,3.2646812 c 0.00303,0.00235 0.00542,0.00501 0.00847,0.00734 0.2596368,0.1982644 0.6129071,0.3631516 1.0417152,0.5016503 0.8576168,0.2769972 2.0199186,0.4417684 3.303096,0.4417687 1.2831777,0 2.4432196,-0.1647715 3.3008355,-0.4417687 0.428809,-0.1384987 0.782079,-0.3033859 1.041716,-0.5016503 0.0016,-0.00125 0.0029,-0.0027 0.0045,-0.00395 v 1.8890975 0.401659 h 0.03616 c -0.0052,0.118685 -0.08234,0.254949 -0.279636,0.405613 -0.204308,0.156015 -0.523444,0.310067 -0.924211,0.439509 -0.8015352,0.258883 -1.9307763,0.423126 -3.1793785,0.423126 -1.2486022,0 -2.3801032,-0.164243 -3.1816378,-0.423126 C 1.20022,11.750292 0.8833445,11.59624 0.6790356,11.440225 0.4817276,11.289557 0.4024749,11.1533 0.3971397,11.034612 h 0.032201 z"
     id="rect821"
     inkscape:connector-curvature="0" />
  <g
     inkscape:label="Layer 1"
     inkscape:groupmode="layer"
     id="layer1"
     transform="translate(0,-284.3)" />
</svg>
